<?xml version="1.0" encoding="UTF-8"?>
<!DOCTYPE svg PUBLIC "-//W3C//DTD SVG 1.1//EN" "http://www.w3.org/Graphics/SVG/1.1/DTD/svg11.dtd">
<svg xmlns="http://www.w3.org/2000/svg" version="1.1" width="366px" height="681px" style="shape-rendering:geometricPrecision; text-rendering:geometricPrecision; image-rendering:optimizeQuality; fill-rule:evenodd; clip-rule:evenodd" xmlns:xlink="http://www.w3.org/1999/xlink">
<g><path style="opacity:0.229" fill="#302222" d="M 238.5,234.5 C 242.988,233.834 247.654,233.501 252.5,233.5C 261.043,233.429 269.376,234.096 277.5,235.5C 273.5,235.5 269.5,235.5 265.5,235.5C 256.682,234.507 247.682,234.173 238.5,234.5 Z"/></g>
<g><path style="opacity:0.635" fill="#484848" d="M 227.5,235.5 C 224.727,236.657 221.727,237.324 218.5,237.5C 221.142,236.194 223.975,235.194 227,234.5C 227.399,234.728 227.565,235.062 227.5,235.5 Z"/></g>
<g><path style="opacity:1" fill="#d3d1d4" d="M 237.5,234.5 C 237.833,234.5 238.167,234.5 238.5,234.5C 247.682,234.173 256.682,234.507 265.5,235.5C 265.5,238.833 265.5,242.167 265.5,245.5C 264.539,243.735 264.205,241.735 264.5,239.5C 255.098,239.338 245.765,240.004 236.5,241.5C 226.87,243.028 217.537,245.695 208.5,249.5C 206.776,252.053 205.276,254.72 204,257.5C 203.803,260.692 202.97,263.692 201.5,266.5C 203.601,269.21 206.267,270.877 209.5,271.5C 203.491,271.666 197.491,271.499 191.5,271C 190.978,270.439 190.645,269.772 190.5,269C 192.878,264.97 194.044,260.803 194,256.5C 205.669,249.253 217.502,242.42 229.5,236C 232.365,235.817 235.031,235.317 237.5,234.5 Z"/></g>
<g><path style="opacity:0.706" fill="#4b484a" d="M 218.5,237.5 C 215.632,238.64 212.632,239.64 209.5,240.5C 206.598,241.578 203.598,242.244 200.5,242.5C 206.073,239.647 212.073,237.98 218.5,237.5 Z"/></g>
<g><path style="opacity:1" fill="#f3f1f6" d="M 265.5,245.5 C 265.993,247.806 266.326,250.139 266.5,252.5C 264.545,253.447 264.211,254.781 265.5,256.5C 264.112,258.109 263.112,259.942 262.5,262C 262.905,262.945 263.572,263.612 264.5,264C 253.929,266.628 244.096,270.795 235,276.5C 233.008,274.768 231.174,272.935 229.5,271C 231.968,267.983 233.301,264.483 233.5,260.5C 234.833,260.5 236.167,260.5 237.5,260.5C 237.723,258.658 238.057,256.825 238.5,255C 236.267,252.709 234.267,250.209 232.5,247.5C 232.866,244.744 234.2,242.744 236.5,241.5C 245.765,240.004 255.098,239.338 264.5,239.5C 264.205,241.735 264.539,243.735 265.5,245.5 Z"/></g>
<g><path style="opacity:0.302" fill="#58160f" d="M 288.5,237.5 C 295.824,238.723 302.824,240.723 309.5,243.5C 302.082,242.566 295.082,240.566 288.5,237.5 Z"/></g>
<g><path style="opacity:0.239" fill="#330d07" d="M 310.5,243.5 C 312.153,243.66 313.486,244.326 314.5,245.5C 312.62,245.771 311.287,245.104 310.5,243.5 Z"/></g>
<g><path style="opacity:1" fill="#6f6c6e" d="M 200.5,242.5 C 198.109,245.917 194.775,247.25 190.5,246.5C 193.54,244.654 196.873,243.321 200.5,242.5 Z"/></g>
<g><path style="opacity:1" fill="#f7cdc6" d="M 304.5,245.5 C 306.927,245.523 309.26,246.023 311.5,247C 310.944,247.383 310.611,247.883 310.5,248.5C 307.482,248.704 304.482,249.037 301.5,249.5C 298.402,249.587 298.068,249.087 300.5,248C 300.167,247.667 299.833,247.333 299.5,247C 300.905,245.731 302.571,245.231 304.5,245.5 Z"/></g>
<g><path style="opacity:1" fill="#f18068" d="M 289.5,242.5 C 288.5,242.5 287.5,242.5 286.5,242.5C 287.623,245.375 288.456,248.375 289,251.5C 290.356,252.38 291.856,252.714 293.5,252.5C 290.381,253.87 287.048,254.87 283.5,255.5C 281.983,255.489 280.816,254.823 280,253.5C 279.814,250.964 279.314,248.631 278.5,246.5C 277.032,245.221 276.365,243.554 276.5,241.5C 281.032,241.182 285.366,241.515 289.5,242.5 Z"/></g>
<g><path style="opacity:1" fill="#f4a698" d="M 289.5,242.5 C 294.77,242.763 299.77,243.763 304.5,245.5C 302.571,245.231 300.905,245.731 299.5,247C 299.833,247.333 300.167,247.667 300.5,248C 298.068,249.087 298.402,249.587 301.5,249.5C 299.152,251.097 296.486,252.097 293.5,252.5C 291.856,252.714 290.356,252.38 289,251.5C 288.456,248.375 287.623,245.375 286.5,242.5C 287.5,242.5 288.5,242.5 289.5,242.5 Z"/></g>
<g><path style="opacity:0.545" fill="#551610" d="M 314.5,246.5 C 314.5,246.167 314.5,245.833 314.5,245.5C 316.017,245.511 317.184,246.177 318,247.5C 318.956,259.765 318.123,271.765 315.5,283.5C 316.001,274.326 316.667,265.159 317.5,256C 317.167,253.5 316.833,251 316.5,248.5C 315.818,247.757 315.151,247.091 314.5,246.5 Z"/></g>
<g><path style="opacity:1" fill="#e83006" d="M 314.5,246.5 C 315.151,247.091 315.818,247.757 316.5,248.5C 316.833,251 317.167,253.5 317.5,256C 316.667,265.159 316.001,274.326 315.5,283.5C 313.425,287.474 312.425,291.808 312.5,296.5C 311.655,297.671 310.989,299.005 310.5,300.5C 309.041,300.567 307.708,300.234 306.5,299.5C 310.819,284.073 313.653,268.406 315,252.5C 305.95,264.043 297.117,275.71 288.5,287.5C 288.167,287.5 287.833,287.5 287.5,287.5C 281.336,281.335 276.336,274.335 272.5,266.5C 272.215,264.712 272.548,263.045 273.5,261.5C 276.535,258.94 279.868,256.94 283.5,255.5C 287.048,254.87 290.381,253.87 293.5,252.5C 296.486,252.097 299.152,251.097 301.5,249.5C 304.482,249.037 307.482,248.704 310.5,248.5C 312.062,248.267 313.395,247.6 314.5,246.5 Z"/></g>
<g><path style="opacity:1" fill="#9f0804" d="M 306.5,299.5 C 299.493,296.997 293.493,292.997 288.5,287.5C 297.117,275.71 305.95,264.043 315,252.5C 313.653,268.406 310.819,284.073 306.5,299.5 Z"/></g>
<g><path style="opacity:1" fill="#e03f1a" d="M 265.5,235.5 C 269.5,235.5 273.5,235.5 277.5,235.5C 281.387,235.646 285.054,236.313 288.5,237.5C 295.082,240.566 302.082,242.566 309.5,243.5C 309.833,243.5 310.167,243.5 310.5,243.5C 311.287,245.104 312.62,245.771 314.5,245.5C 314.5,245.833 314.5,246.167 314.5,246.5C 313.395,247.6 312.062,248.267 310.5,248.5C 310.611,247.883 310.944,247.383 311.5,247C 309.26,246.023 306.927,245.523 304.5,245.5C 299.77,243.763 294.77,242.763 289.5,242.5C 285.366,241.515 281.032,241.182 276.5,241.5C 276.365,243.554 277.032,245.221 278.5,246.5C 279.314,248.631 279.814,250.964 280,253.5C 280.816,254.823 281.983,255.489 283.5,255.5C 279.868,256.94 276.535,258.94 273.5,261.5C 272.548,263.045 272.215,264.712 272.5,266.5C 269.943,262.055 267.943,257.389 266.5,252.5C 266.326,250.139 265.993,247.806 265.5,245.5C 265.5,242.167 265.5,238.833 265.5,235.5 Z"/></g>
<g><path style="opacity:1" fill="#f0ab97" d="M 278.5,246.5 C 278.306,248.912 276.973,249.912 274.5,249.5C 274.5,248.5 274.5,247.5 274.5,246.5C 275.833,246.5 277.167,246.5 278.5,246.5 Z"/></g>
<g><path style="opacity:1" fill="#706c6d" d="M 165.5,261.5 C 164.71,262.794 163.71,263.961 162.5,265C 162.833,265.333 163.167,265.667 163.5,266C 161.482,266.505 159.482,267.005 157.5,267.5C 159.8,265.016 162.467,263.016 165.5,261.5 Z"/></g>
<g><path style="opacity:1" fill="#efae9a" d="M 283.5,265.5 C 285.355,265.272 286.188,265.939 286,267.5C 283.192,268.86 282.359,268.193 283.5,265.5 Z"/></g>
<g><path style="opacity:0.627" fill="#423f40" d="M 157.5,267.5 C 155.761,270.243 153.427,272.243 150.5,273.5C 152.239,270.757 154.573,268.757 157.5,267.5 Z"/></g>
<g><path style="opacity:1" fill="#e8e4ea" d="M 236.5,241.5 C 234.2,242.744 232.866,244.744 232.5,247.5C 234.267,250.209 236.267,252.709 238.5,255C 238.057,256.825 237.723,258.658 237.5,260.5C 236.167,260.5 234.833,260.5 233.5,260.5C 233.301,264.483 231.968,267.983 229.5,271C 231.174,272.935 233.008,274.768 235,276.5C 244.096,270.795 253.929,266.628 264.5,264C 263.572,263.612 262.905,262.945 262.5,262C 263.112,259.942 264.112,258.109 265.5,256.5C 264.211,254.781 264.545,253.447 266.5,252.5C 267.943,257.389 269.943,262.055 272.5,266.5C 276.336,274.335 281.336,281.335 287.5,287.5C 285.107,291.402 282.107,294.902 278.5,298C 273,302.833 267.5,307.667 262,312.5C 261.5,319.158 261.334,325.825 261.5,332.5C 260.732,333.263 260.232,334.263 260,335.5C 259.828,328.987 259.328,322.653 258.5,316.5C 257.605,307.716 254.272,300.049 248.5,293.5C 241.769,283.769 232.769,277.103 221.5,273.5C 221.389,272.883 221.056,272.383 220.5,272C 216.848,271.501 213.182,271.335 209.5,271.5C 206.267,270.877 203.601,269.21 201.5,266.5C 202.97,263.692 203.803,260.692 204,257.5C 205.276,254.72 206.776,252.053 208.5,249.5C 217.537,245.695 226.87,243.028 236.5,241.5 Z"/></g>
<g><path style="opacity:1" fill="#b9bbbc" d="M 237.5,234.5 C 235.031,235.317 232.365,235.817 229.5,236C 217.502,242.42 205.669,249.253 194,256.5C 194.044,260.803 192.878,264.97 190.5,269C 190.645,269.772 190.978,270.439 191.5,271C 197.491,271.499 203.491,271.666 209.5,271.5C 213.182,271.335 216.848,271.501 220.5,272C 221.056,272.383 221.389,272.883 221.5,273.5C 190.636,268.246 169.136,279.913 157,308.5C 155.331,316.621 155.164,324.621 156.5,332.5C 156.5,333.5 156.5,334.5 156.5,335.5C 156.677,339.708 158.01,343.374 160.5,346.5C 160.893,348.284 161.559,349.95 162.5,351.5C 164.023,354.345 165.023,357.345 165.5,360.5C 167.103,360.312 168.437,360.812 169.5,362C 168.551,362.617 167.718,362.451 167,361.5C 166.667,362.167 166.333,362.833 166,363.5C 164.254,360.71 161.754,359.043 158.5,358.5C 157.428,356.429 155.761,355.095 153.5,354.5C 150.817,355.51 148.151,356.51 145.5,357.5C 143.295,355.637 141.961,353.303 141.5,350.5C 140.325,350.719 139.325,350.386 138.5,349.5C 134.738,343.264 130.072,337.93 124.5,333.5C 126.54,325.591 129.54,318.091 133.5,311C 151.248,282.074 175.581,260.907 206.5,247.5C 207.801,245.328 208.801,242.995 209.5,240.5C 212.632,239.64 215.632,238.64 218.5,237.5C 221.727,237.324 224.727,236.657 227.5,235.5C 230.728,234.586 234.061,234.253 237.5,234.5 Z"/></g>
<g><path style="opacity:1" fill="#f9cec6" d="M 299.5,282.5 C 301.337,282.639 301.67,283.306 300.5,284.5C 299.702,284.043 299.369,283.376 299.5,282.5 Z"/></g>
<g><path style="opacity:0.482" fill="#343133" d="M 143.5,280.5 C 142.92,282.749 141.587,284.415 139.5,285.5C 140.08,283.251 141.413,281.585 143.5,280.5 Z"/></g>
<g><path style="opacity:1" fill="#892a18" d="M 221.5,273.5 C 232.769,277.103 241.769,283.769 248.5,293.5C 244.457,290.271 240.457,286.771 236.5,283C 233.968,281.235 231.301,279.735 228.5,278.5C 218.69,274.567 208.69,273.567 198.5,275.5C 193.302,275.731 188.302,276.897 183.5,279C 178.986,282.091 174.653,285.425 170.5,289C 169.177,289.816 168.511,290.983 168.5,292.5C 158.829,303.915 154.829,317.248 156.5,332.5C 155.164,324.621 155.331,316.621 157,308.5C 169.136,279.913 190.636,268.246 221.5,273.5 Z"/></g>
<g><path style="opacity:1" fill="#f46848" d="M 198.5,275.5 C 208.69,273.567 218.69,274.567 228.5,278.5C 228.5,280.5 228.5,282.5 228.5,284.5C 229.833,284.5 231.167,284.5 232.5,284.5C 232.5,285.5 232.5,286.5 232.5,287.5C 222.738,281.395 212.072,279.062 200.5,280.5C 205.64,279.512 210.974,279.179 216.5,279.5C 216.5,278.167 216.5,276.833 216.5,275.5C 210.5,275.5 204.5,275.5 198.5,275.5 Z"/></g>
<g><path style="opacity:1" fill="#f35b36" d="M 198.5,275.5 C 204.5,275.5 210.5,275.5 216.5,275.5C 216.5,276.833 216.5,278.167 216.5,279.5C 210.974,279.179 205.64,279.512 200.5,280.5C 193.643,281.452 187.31,283.785 181.5,287.5C 181.5,286.5 181.5,285.5 181.5,284.5C 182.873,284.657 184.207,284.49 185.5,284C 183.5,283.333 181.5,283.333 179.5,284C 175.957,287.049 172.291,289.882 168.5,292.5C 168.511,290.983 169.177,289.816 170.5,289C 174.653,285.425 178.986,282.091 183.5,279C 188.302,276.897 193.302,275.731 198.5,275.5 Z"/></g>
<g><path style="opacity:1" fill="#7d2112" d="M 200.5,280.5 C 212.072,279.062 222.738,281.395 232.5,287.5C 236.824,292.125 241.157,296.792 245.5,301.5C 250.238,312.272 251.738,323.606 250,335.5C 246.257,348.578 238.423,358.411 226.5,365C 222.788,365.595 219.455,366.928 216.5,369C 209.5,369.667 202.5,369.667 195.5,369C 190.162,366.331 184.828,363.664 179.5,361C 160.156,343.271 156.656,322.771 169,299.5C 173.062,295.269 177.229,291.269 181.5,287.5C 187.31,283.785 193.643,281.452 200.5,280.5 Z"/></g>
<g><path style="opacity:1" fill="#a99ca2" d="M 209.5,240.5 C 208.801,242.995 207.801,245.328 206.5,247.5C 175.581,260.907 151.248,282.074 133.5,311C 129.54,318.091 126.54,325.591 124.5,333.5C 123.596,334.209 123.263,335.209 123.5,336.5C 122.07,336.579 120.736,336.246 119.5,335.5C 118.526,333.257 118.192,330.924 118.5,328.5C 119.756,320.983 122.423,313.983 126.5,307.5C 126.376,306.893 126.043,306.56 125.5,306.5C 126.997,302.835 128.997,299.502 131.5,296.5C 132.946,291.939 135.613,288.272 139.5,285.5C 141.587,284.415 142.92,282.749 143.5,280.5C 145.5,277.833 147.833,275.5 150.5,273.5C 153.427,272.243 155.761,270.243 157.5,267.5C 159.482,267.005 161.482,266.505 163.5,266C 163.167,265.667 162.833,265.333 162.5,265C 163.71,263.961 164.71,262.794 165.5,261.5C 172.996,255.246 181.33,250.246 190.5,246.5C 194.775,247.25 198.109,245.917 200.5,242.5C 203.598,242.244 206.598,241.578 209.5,240.5 Z"/></g>
<g><path style="opacity:1" fill="#f8f8f8" d="M 190.5,285.5 C 193.666,287.511 195,290.511 194.5,294.5C 194.338,300.64 191.338,304.807 185.5,307C 179.262,308.702 174.595,306.868 171.5,301.5C 176.024,293.973 182.357,288.64 190.5,285.5 Z"/></g>
<g><path style="opacity:0.173" fill="#41120c" d="M 315.5,283.5 C 315.118,288.092 314.118,292.425 312.5,296.5C 312.425,291.808 313.425,287.474 315.5,283.5 Z"/></g>
<g><path style="opacity:0.871" fill="#420908" d="M 119.5,291.5 C 116.15,291.335 112.817,291.502 109.5,292C 106.647,293.43 103.647,294.263 100.5,294.5C 106.403,290.593 112.736,289.593 119.5,291.5 Z"/></g>
<g><path style="opacity:1" fill="#970906" d="M 119.5,291.5 C 119.833,291.5 120.167,291.5 120.5,291.5C 121.911,293.539 123.911,294.539 126.5,294.5C 126.657,295.873 126.49,297.207 126,298.5C 119.153,308.845 114.319,320.178 111.5,332.5C 110.842,333.398 110.176,334.398 109.5,335.5C 108.583,334.873 107.583,334.539 106.5,334.5C 106.5,332.833 106.5,331.167 106.5,329.5C 106.5,328.833 106.5,328.167 106.5,327.5C 106.547,324.031 107.213,320.698 108.5,317.5C 111.667,311.824 114.333,305.824 116.5,299.5C 109.063,299.723 102.729,302.39 97.5,307.5C 95.7376,307.643 94.0709,307.309 92.5,306.5C 91.8333,307.167 91.1667,307.833 90.5,308.5C 89.7348,307.388 88.7348,306.721 87.5,306.5C 89.1667,304.5 90.8333,302.5 92.5,300.5C 94.4426,297.529 97.1092,295.529 100.5,294.5C 103.647,294.263 106.647,293.43 109.5,292C 112.817,291.502 116.15,291.335 119.5,291.5 Z"/></g>
<g><path style="opacity:1" fill="#0b1a1e" d="M 209.5,293.5 C 213.909,294.248 216.242,296.914 216.5,301.5C 215.735,301.077 214.902,300.743 214,300.5C 212.14,302.201 209.973,303.201 207.5,303.5C 206.903,303.265 206.57,302.765 206.5,302C 207.694,299.112 208.694,296.278 209.5,293.5 Z"/></g>
<g><path style="opacity:1" fill="#6281ba" d="M 223.5,287.5 C 229.048,289.396 233.381,292.729 236.5,297.5C 232.139,294.132 227.806,290.798 223.5,287.5 Z"/></g>
<g><path style="opacity:1" fill="#f25a34" d="M 228.5,278.5 C 231.301,279.735 233.968,281.235 236.5,283C 240.457,286.771 244.457,290.271 248.5,293.5C 248.366,295.292 248.699,296.958 249.5,298.5C 247.368,298.554 246.035,299.554 245.5,301.5C 241.157,296.792 236.824,292.125 232.5,287.5C 232.5,286.5 232.5,285.5 232.5,284.5C 231.167,284.5 229.833,284.5 228.5,284.5C 228.5,282.5 228.5,280.5 228.5,278.5 Z"/></g>
<g><path style="opacity:1" fill="#233136" d="M 208.5,286.5 C 211.127,287.105 213.793,287.605 216.5,288C 217.056,288.383 217.389,288.883 217.5,289.5C 219.879,294.294 221.879,299.294 223.5,304.5C 222.413,305.105 221.246,304.772 220,303.5C 219.833,304 219.667,304.5 219.5,305C 220.296,307.285 221.629,309.119 223.5,310.5C 219.04,309.284 216.707,306.284 216.5,301.5C 216.242,296.914 213.909,294.248 209.5,293.5C 209.702,291.05 209.369,288.717 208.5,286.5 Z"/></g>
<g><path style="opacity:0.035" fill="#2b1816" d="M 312.5,296.5 C 312.258,300.479 311.258,304.146 309.5,307.5C 309.517,305.435 309.85,303.435 310.5,301.5C 310.5,301.167 310.5,300.833 310.5,300.5C 310.989,299.005 311.655,297.671 312.5,296.5 Z"/></g>
<g><path style="opacity:1" fill="#e83207" d="M 108.5,317.5 C 106.076,317.808 103.743,317.474 101.5,316.5C 100.098,314.854 98.2644,313.854 96,313.5C 95.5,313.167 95,312.833 94.5,312.5C 95.1272,311.583 95.4606,310.583 95.5,309.5C 96.1667,308.833 96.8333,308.167 97.5,307.5C 102.729,302.39 109.063,299.723 116.5,299.5C 114.333,305.824 111.667,311.824 108.5,317.5 Z"/></g>
<g><path style="opacity:0.62" fill="#3e0a0a" d="M 92.5,300.5 C 90.8333,302.5 89.1667,304.5 87.5,306.5C 86.8333,306.833 86.1667,307.167 85.5,307.5C 86.8333,304.167 89.1667,301.833 92.5,300.5 Z"/></g>
<g><path style="opacity:1" fill="#86aebd" d="M 209.5,282.5 C 211.167,283.167 212.833,283.833 214.5,284.5C 212.167,284.5 209.833,284.5 207.5,284.5C 204.287,284.19 201.287,284.523 198.5,285.5C 197.711,285.783 197.044,286.283 196.5,287C 197.93,288.907 198.596,291.074 198.5,293.5C 198.194,296.532 197.694,299.532 197,302.5C 195.07,304.219 193.236,306.053 191.5,308C 190.207,308.49 188.873,308.657 187.5,308.5C 196.934,301.933 198.934,293.933 193.5,284.5C 198.553,282.74 203.886,282.073 209.5,282.5 Z"/></g>
<g><path style="opacity:1" fill="#c7d7dc" d="M 190.5,285.5 C 191.209,284.596 192.209,284.263 193.5,284.5C 198.934,293.933 196.934,301.933 187.5,308.5C 186.228,309.434 184.728,310.101 183,310.5C 180.536,309.839 178.036,309.339 175.5,309C 174.061,308.009 173.061,306.676 172.5,305C 171.552,304.517 170.552,304.351 169.5,304.5C 169.427,302.973 170.094,301.973 171.5,301.5C 174.595,306.868 179.262,308.702 185.5,307C 191.338,304.807 194.338,300.64 194.5,294.5C 195,290.511 193.666,287.511 190.5,285.5 Z"/></g>
<g><path style="opacity:1" fill="#111d25" d="M 217.5,289.5 C 220.193,293.354 223.693,296.354 228,298.5C 228.616,302.902 229.782,306.902 231.5,310.5C 230.859,311.482 230.193,312.482 229.5,313.5C 230.612,314.265 231.279,315.265 231.5,316.5C 231.5,320.167 231.5,323.833 231.5,327.5C 230.833,326.5 230.167,325.5 229.5,324.5C 229.233,322.035 228.566,319.701 227.5,317.5C 227.5,316.833 227.5,316.167 227.5,315.5C 227.106,313.29 225.773,311.957 223.5,311.5C 223.5,311.167 223.5,310.833 223.5,310.5C 221.629,309.119 220.296,307.285 219.5,305C 219.667,304.5 219.833,304 220,303.5C 221.246,304.772 222.413,305.105 223.5,304.5C 221.879,299.294 219.879,294.294 217.5,289.5 Z"/></g>
<g><path style="opacity:1" fill="#a4b2cd" d="M 209.5,282.5 C 229.64,284.326 242.473,294.993 248,314.5C 251.149,334.518 244.316,349.852 227.5,360.5C 226.508,360.672 225.842,360.338 225.5,359.5C 228.489,357.997 231.156,355.997 233.5,353.5C 241.066,346.919 245.066,338.585 245.5,328.5C 246.777,327.306 247.444,325.64 247.5,323.5C 247.217,319.804 246.717,316.137 246,312.5C 245.392,310.934 244.558,309.6 243.5,308.5C 241.588,304.583 239.255,300.917 236.5,297.5C 233.381,292.729 229.048,289.396 223.5,287.5C 220.215,287.072 217.215,286.072 214.5,284.5C 212.833,283.833 211.167,283.167 209.5,282.5 Z"/></g>
<g><path style="opacity:0.675" fill="#441413" d="M 85.5,307.5 C 84.5806,310.089 82.914,312.089 80.5,313.5C 81.4194,310.911 83.086,308.911 85.5,307.5 Z"/></g>
<g><path style="opacity:1" fill="#ab2d1a" d="M 87.5,306.5 C 88.7348,306.721 89.7348,307.388 90.5,308.5C 91.1667,307.833 91.8333,307.167 92.5,306.5C 94.0709,307.309 95.7376,307.643 97.5,307.5C 96.8333,308.167 96.1667,308.833 95.5,309.5C 92.9401,311.273 90.6068,313.273 88.5,315.5C 86.3697,317.082 84.7031,319.082 83.5,321.5C 82.609,322.11 81.609,322.443 80.5,322.5C 79.0998,321.9 78.0998,320.9 77.5,319.5C 78.5294,317.483 79.5294,315.483 80.5,313.5C 82.914,312.089 84.5806,310.089 85.5,307.5C 86.1667,307.167 86.8333,306.833 87.5,306.5 Z"/></g>
<g><path style="opacity:1" fill="#598d98" d="M 198.5,285.5 C 199.167,291.5 199.833,297.5 200.5,303.5C 199.5,303.5 198.5,303.5 197.5,303.5C 197.5,304.5 197.5,305.5 197.5,306.5C 196.167,306.5 194.833,306.5 193.5,306.5C 193.663,308.857 193.497,311.19 193,313.5C 192.781,312.062 192.281,310.729 191.5,309.5C 188.997,311.495 186.164,312.829 183,313.5C 179.805,311.362 176.471,311.029 173,312.5C 171.883,311.051 171.216,309.384 171,307.5C 168.842,308.489 167.675,310.156 167.5,312.5C 166.833,312.833 166.167,313.167 165.5,313.5C 166.075,310.088 167.408,307.088 169.5,304.5C 170.552,304.351 171.552,304.517 172.5,305C 173.061,306.676 174.061,308.009 175.5,309C 178.036,309.339 180.536,309.839 183,310.5C 184.728,310.101 186.228,309.434 187.5,308.5C 188.873,308.657 190.207,308.49 191.5,308C 193.236,306.053 195.07,304.219 197,302.5C 197.694,299.532 198.194,296.532 198.5,293.5C 198.596,291.074 197.93,288.907 196.5,287C 197.044,286.283 197.711,285.783 198.5,285.5 Z"/></g>
<g><path style="opacity:1" fill="#313584" d="M 207.5,284.5 C 209.833,284.5 212.167,284.5 214.5,284.5C 217.215,286.072 220.215,287.072 223.5,287.5C 227.806,290.798 232.139,294.132 236.5,297.5C 239.255,300.917 241.588,304.583 243.5,308.5C 245.205,315.014 245.871,321.681 245.5,328.5C 240.875,329.159 236.875,330.826 233.5,333.5C 233.167,333.5 232.833,333.5 232.5,333.5C 232.675,331.379 232.341,329.379 231.5,327.5C 231.5,323.833 231.5,320.167 231.5,316.5C 233.43,320.373 234.097,324.706 233.5,329.5C 236.088,329.457 238.254,328.457 240,326.5C 240.772,321.096 240.439,315.762 239,310.5C 235.978,308.312 233.478,305.645 231.5,302.5C 230.271,305.199 230.271,307.865 231.5,310.5C 229.782,306.902 228.616,302.902 228,298.5C 223.693,296.354 220.193,293.354 217.5,289.5C 217.389,288.883 217.056,288.383 216.5,288C 213.793,287.605 211.127,287.105 208.5,286.5C 207.662,286.158 207.328,285.492 207.5,284.5 Z"/></g>
<g><path style="opacity:1" fill="#175966" d="M 207.5,284.5 C 207.328,285.492 207.662,286.158 208.5,286.5C 209.369,288.717 209.702,291.05 209.5,293.5C 208.694,296.278 207.694,299.112 206.5,302C 206.57,302.765 206.903,303.265 207.5,303.5C 206.048,304.302 204.382,304.802 202.5,305C 201.62,306.356 201.286,307.856 201.5,309.5C 199.083,311.411 196.75,313.578 194.5,316C 190.469,316.635 187.136,318.468 184.5,321.5C 179.247,321.182 173.914,321.182 168.5,321.5C 168.768,319.901 168.434,318.568 167.5,317.5C 167.5,315.833 167.5,314.167 167.5,312.5C 167.675,310.156 168.842,308.489 171,307.5C 171.216,309.384 171.883,311.051 173,312.5C 176.471,311.029 179.805,311.362 183,313.5C 186.164,312.829 188.997,311.495 191.5,309.5C 192.281,310.729 192.781,312.062 193,313.5C 193.497,311.19 193.663,308.857 193.5,306.5C 194.833,306.5 196.167,306.5 197.5,306.5C 197.5,305.5 197.5,304.5 197.5,303.5C 198.5,303.5 199.5,303.5 200.5,303.5C 199.833,297.5 199.167,291.5 198.5,285.5C 201.287,284.523 204.287,284.19 207.5,284.5 Z"/></g>
<g><path style="opacity:1" fill="#ed4e17" d="M 95.5,309.5 C 95.4606,310.583 95.1272,311.583 94.5,312.5C 95,312.833 95.5,313.167 96,313.5C 98.2644,313.854 100.098,314.854 101.5,316.5C 103.743,317.474 106.076,317.808 108.5,317.5C 107.213,320.698 106.547,324.031 106.5,327.5C 100.054,324.161 94.0539,320.161 88.5,315.5C 90.6068,313.273 92.9401,311.273 95.5,309.5 Z"/></g>
<g><path style="opacity:0.475" fill="#4a1e19" d="M 80.5,313.5 C 79.5294,315.483 78.5294,317.483 77.5,319.5C 76.8333,319.833 76.1667,320.167 75.5,320.5C 76.4333,317.63 78.1,315.296 80.5,313.5 Z"/></g>
<g><path style="opacity:1" fill="#bba4b0" d="M 287.5,287.5 C 287.833,287.5 288.167,287.5 288.5,287.5C 293.493,292.997 299.493,296.997 306.5,299.5C 307.708,300.234 309.041,300.567 310.5,300.5C 310.5,300.833 310.5,301.167 310.5,301.5C 308.738,301.643 307.071,301.309 305.5,300.5C 304.013,304.12 302.679,307.786 301.5,311.5C 300.5,311.5 299.5,311.5 298.5,311.5C 298.622,314.257 297.455,316.257 295,317.5C 292.965,315.088 291.965,315.755 292,319.5C 291.667,318.833 291.333,318.167 291,317.5C 290.774,320.095 290.274,322.595 289.5,325C 289.833,325.333 290.167,325.667 290.5,326C 288.248,327.115 285.748,327.281 283,326.5C 280.397,326.965 277.897,327.632 275.5,328.5C 275.167,331.167 274.833,333.833 274.5,336.5C 272.173,336.247 270.173,336.914 268.5,338.5C 266.435,334.593 264.935,334.926 264,339.5C 262.477,337.431 261.643,335.097 261.5,332.5C 261.334,325.825 261.5,319.158 262,312.5C 267.5,307.667 273,302.833 278.5,298C 282.107,294.902 285.107,291.402 287.5,287.5 Z"/></g>
<g><path style="opacity:1" fill="#ef6327" d="M 88.5,315.5 C 94.0539,320.161 100.054,324.161 106.5,327.5C 106.5,328.167 106.5,328.833 106.5,329.5C 101.55,329.874 97.2171,328.208 93.5,324.5C 90.191,323.285 86.8577,322.285 83.5,321.5C 84.7031,319.082 86.3697,317.082 88.5,315.5 Z"/></g>
<g><path style="opacity:1" fill="#b05536" d="M 77.5,319.5 C 78.0998,320.9 79.0998,321.9 80.5,322.5C 78.1667,325.833 75.8333,329.167 73.5,332.5C 71.4336,334.199 69.1003,335.532 66.5,336.5C 66.5,335.833 66.5,335.167 66.5,334.5C 67.3403,332.147 68.6736,330.147 70.5,328.5C 72.0315,327.323 73.5315,325.989 75,324.5C 75.49,323.207 75.6567,321.873 75.5,320.5C 76.1667,320.167 76.8333,319.833 77.5,319.5 Z"/></g>
<g><path style="opacity:1" fill="#747677" d="M 306.5,315.5 C 305.29,320.251 303.29,324.584 300.5,328.5C 300.34,326.801 300.506,325.134 301,323.5C 302.549,321.382 303.716,319.049 304.5,316.5C 305.183,316.137 305.85,315.804 306.5,315.5 Z"/></g>
<g><path style="opacity:0.929" fill="#6e372c" d="M 75.5,320.5 C 75.6567,321.873 75.49,323.207 75,324.5C 73.5315,325.989 72.0315,327.323 70.5,328.5C 71.3833,325.296 73.0499,322.629 75.5,320.5 Z"/></g>
<g><path style="opacity:1" fill="#ee7635" d="M 83.5,321.5 C 86.8577,322.285 90.191,323.285 93.5,324.5C 97.2171,328.208 101.55,329.874 106.5,329.5C 106.5,331.167 106.5,332.833 106.5,334.5C 106.5,334.833 106.5,335.167 106.5,335.5C 95.8393,331.42 84.8393,330.42 73.5,332.5C 75.8333,329.167 78.1667,325.833 80.5,322.5C 81.609,322.443 82.609,322.11 83.5,321.5 Z"/></g>
<g><path style="opacity:1" fill="#dbd688" d="M 106.5,335.5 C 108.587,336.585 109.92,338.251 110.5,340.5C 109.167,339.833 107.833,339.167 106.5,338.5C 92.7632,333.859 79.4299,334.859 66.5,341.5C 64.9519,341.179 64.2852,340.179 64.5,338.5C 65.5,338.167 66.1667,337.5 66.5,336.5C 69.1003,335.532 71.4336,334.199 73.5,332.5C 84.8393,330.42 95.8393,331.42 106.5,335.5 Z"/></g>
<g><path style="opacity:1" fill="#9f5331" d="M 111.5,332.5 C 111.806,335.385 111.473,338.052 110.5,340.5C 109.92,338.251 108.587,336.585 106.5,335.5C 106.5,335.167 106.5,334.833 106.5,334.5C 107.583,334.539 108.583,334.873 109.5,335.5C 110.176,334.398 110.842,333.398 111.5,332.5 Z"/></g>
<g><path style="opacity:0.251" fill="#3f3020" d="M 66.5,334.5 C 66.5,335.167 66.5,335.833 66.5,336.5C 66.1667,337.5 65.5,338.167 64.5,338.5C 64.6596,336.847 65.3263,335.514 66.5,334.5 Z"/></g>
<g><path style="opacity:0.012" fill="#212223" d="M 296.5,336.5 C 296.573,338.027 295.906,339.027 294.5,339.5C 294.427,337.973 295.094,336.973 296.5,336.5 Z"/></g>
<g><path style="opacity:1" fill="#bcbeae" d="M 118.5,328.5 C 118.192,330.924 118.526,333.257 119.5,335.5C 120.736,336.246 122.07,336.579 123.5,336.5C 123.263,335.209 123.596,334.209 124.5,333.5C 130.072,337.93 134.738,343.264 138.5,349.5C 139.325,350.386 140.325,350.719 141.5,350.5C 141.961,353.303 143.295,355.637 145.5,357.5C 142.696,359.405 139.696,361.071 136.5,362.5C 137.063,356.628 134.73,352.294 129.5,349.5C 125.521,347.585 122.688,348.585 121,352.5C 120.314,349.203 119.147,346.203 117.5,343.5C 117.5,343.167 117.5,342.833 117.5,342.5C 117.181,337.637 117.514,332.97 118.5,328.5 Z"/></g>
<g><path style="opacity:1" fill="#b4b5b6" d="M 310.5,301.5 C 309.85,303.435 309.517,305.435 309.5,307.5C 309.267,310.542 308.267,313.208 306.5,315.5C 305.85,315.804 305.183,316.137 304.5,316.5C 303.716,319.049 302.549,321.382 301,323.5C 300.506,325.134 300.34,326.801 300.5,328.5C 299.674,331.485 298.341,334.151 296.5,336.5C 295.094,336.973 294.427,337.973 294.5,339.5C 293.094,339.973 292.427,340.973 292.5,342.5C 291.167,342.5 289.833,342.5 288.5,342.5C 288.33,343.822 288.663,344.989 289.5,346C 285.97,346.672 284.637,348.838 285.5,352.5C 285.262,354.404 284.262,355.738 282.5,356.5C 281.12,357.706 279.953,357.373 279,355.5C 278.51,356.793 278.343,358.127 278.5,359.5C 276.058,359.354 275.391,360.187 276.5,362C 275.552,362.483 274.552,362.649 273.5,362.5C 273.649,363.552 273.483,364.552 273,365.5C 271.162,364.678 268.996,363.678 266.5,362.5C 282.385,348.398 294.052,331.398 301.5,311.5C 302.679,307.786 304.013,304.12 305.5,300.5C 307.071,301.309 308.738,301.643 310.5,301.5 Z"/></g>
<g><path style="opacity:1" fill="#d0cd93" d="M 125.5,306.5 C 126.043,306.56 126.376,306.893 126.5,307.5C 122.423,313.983 119.756,320.983 118.5,328.5C 117.514,332.97 117.181,337.637 117.5,342.5C 116.686,340.369 116.186,338.036 116,335.5C 115.501,339.486 115.334,343.486 115.5,347.5C 113.43,332.673 116.763,319.006 125.5,306.5 Z"/></g>
<g><path style="opacity:1" fill="#87301a" d="M 156.5,335.5 C 159,338.66 160.333,342.327 160.5,346.5C 158.01,343.374 156.677,339.708 156.5,335.5 Z"/></g>
<g><path style="opacity:1" fill="#aea0a7" d="M 301.5,311.5 C 294.052,331.398 282.385,348.398 266.5,362.5C 261.128,368.201 255.128,373.201 248.5,377.5C 247.222,375.339 245.889,373.173 244.5,371C 245.956,369.255 247.289,367.422 248.5,365.5C 247.603,365.331 246.603,364.998 245.5,364.5C 246,363.5 246.5,362.5 247,361.5C 250.299,356.698 253.799,352.031 257.5,347.5C 257.981,344.917 258.648,342.417 259.5,340C 258.906,339.536 258.239,339.369 257.5,339.5C 258.207,331.854 258.54,324.187 258.5,316.5C 259.328,322.653 259.828,328.987 260,335.5C 260.232,334.263 260.732,333.263 261.5,332.5C 261.643,335.097 262.477,337.431 264,339.5C 264.935,334.926 266.435,334.593 268.5,338.5C 270.173,336.914 272.173,336.247 274.5,336.5C 274.833,333.833 275.167,331.167 275.5,328.5C 277.897,327.632 280.397,326.965 283,326.5C 285.748,327.281 288.248,327.115 290.5,326C 290.167,325.667 289.833,325.333 289.5,325C 290.274,322.595 290.774,320.095 291,317.5C 291.333,318.167 291.667,318.833 292,319.5C 291.965,315.755 292.965,315.088 295,317.5C 297.455,316.257 298.622,314.257 298.5,311.5C 299.5,311.5 300.5,311.5 301.5,311.5 Z"/></g>
<g><path style="opacity:0.008" fill="#242425" d="M 294.5,339.5 C 294.573,341.027 293.906,342.027 292.5,342.5C 292.427,340.973 293.094,339.973 294.5,339.5 Z"/></g>
<g><path style="opacity:0.973" fill="#7b7b5b" d="M 64.5,338.5 C 64.2852,340.179 64.9519,341.179 66.5,341.5C 65.2347,342.479 63.9014,343.479 62.5,344.5C 61.5514,342.067 62.2181,340.067 64.5,338.5 Z"/></g>
<g><path style="opacity:1" fill="#757678" d="M 292.5,342.5 C 291.149,346.542 288.815,349.875 285.5,352.5C 284.637,348.838 285.97,346.672 289.5,346C 288.663,344.989 288.33,343.822 288.5,342.5C 289.833,342.5 291.167,342.5 292.5,342.5 Z"/></g>
<g><path style="opacity:1" fill="#cacca9" d="M 117.5,343.5 C 119.147,346.203 120.314,349.203 121,352.5C 122.688,348.585 125.521,347.585 129.5,349.5C 134.73,352.294 137.063,356.628 136.5,362.5C 132.708,364.968 128.708,366.968 124.5,368.5C 120.77,360.585 118.437,352.251 117.5,343.5 Z"/></g>
<g><path style="opacity:1" fill="#eeed9c" d="M 117.5,342.5 C 117.5,342.833 117.5,343.167 117.5,343.5C 118.437,352.251 120.77,360.585 124.5,368.5C 123.614,369.776 122.614,369.776 121.5,368.5C 117.887,361.99 115.887,354.99 115.5,347.5C 115.334,343.486 115.501,339.486 116,335.5C 116.186,338.036 116.686,340.369 117.5,342.5 Z"/></g>
<g><path style="opacity:1" fill="#ee641e" d="M 103.5,367.5 C 103.5,370.167 103.5,372.833 103.5,375.5C 91.7995,374.482 80.4661,375.982 69.5,380C 68.944,380.383 68.6107,380.883 68.5,381.5C 66.4649,383.709 64.1316,385.709 61.5,387.5C 55.2884,390.426 52.4551,395.426 53,402.5C 50.9798,404.551 49.4798,406.884 48.5,409.5C 42.3391,414.147 39.0058,420.48 38.5,428.5C 44.5797,429.018 50.5797,429.518 56.5,430C 59.4263,432.396 60.093,435.229 58.5,438.5C 59.1446,435.453 58.1446,433.287 55.5,432C 50.9988,431.867 46.6654,432.7 42.5,434.5C 40.9731,434.427 39.9731,435.094 39.5,436.5C 37.0838,438.908 35.0838,441.574 33.5,444.5C 32.8333,444.833 32.1667,445.167 31.5,445.5C 30.0798,436.144 30.7464,426.811 33.5,417.5C 34.9238,415.485 35.5905,413.152 35.5,410.5C 35.5,410.167 35.5,409.833 35.5,409.5C 37.8337,407.824 38.8337,405.491 38.5,402.5C 39.7417,398.345 41.7417,394.678 44.5,391.5C 45.9063,391.027 46.573,390.027 46.5,388.5C 47.9063,388.027 48.573,387.027 48.5,385.5C 49.5,383.833 50.8333,382.5 52.5,381.5C 55.4274,380.243 57.7607,378.243 59.5,375.5C 59.9731,374.094 60.9731,373.427 62.5,373.5C 64.0269,373.573 65.0269,372.906 65.5,371.5C 70.2074,370.64 74.5407,368.973 78.5,366.5C 81.8167,365.835 85.3167,365.501 89,365.5C 94.1021,365.293 98.9355,365.96 103.5,367.5 Z"/></g>
<g><path style="opacity:1" fill="#8d2512" d="M 248.5,293.5 C 254.272,300.049 257.605,307.716 258.5,316.5C 258.54,324.187 258.207,331.854 257.5,339.5C 242.816,370.838 218.816,381.505 185.5,371.5C 175.958,366.956 168.291,360.289 162.5,351.5C 161.559,349.95 160.893,348.284 160.5,346.5C 164.349,350.19 167.683,354.357 170.5,359C 174.761,361.587 178.761,364.587 182.5,368C 216.651,381.167 241.151,371.001 256,337.5C 258.431,326.627 257.764,315.96 254,305.5C 252.974,302.761 251.474,300.428 249.5,298.5C 248.699,296.958 248.366,295.292 248.5,293.5 Z"/></g>
<g><path style="opacity:0.996" fill="#994220" d="M 78.5,366.5 C 74.5407,368.973 70.2074,370.64 65.5,371.5C 69.377,368.871 73.7103,367.204 78.5,366.5 Z"/></g>
<g><path style="opacity:1" fill="#b6b778" d="M 111.5,375.5 C 110.561,371.719 109.561,368.053 108.5,364.5C 108.833,363.5 109.5,362.833 110.5,362.5C 111.601,361.2 112.934,360.7 114.5,361C 116.024,363.899 117.357,366.899 118.5,370C 116.959,372.778 114.626,374.612 111.5,375.5 Z"/></g>
<g><path style="opacity:1" fill="#e43209" d="M 181.5,287.5 C 177.229,291.269 173.062,295.269 169,299.5C 156.656,322.771 160.156,343.271 179.5,361C 184.828,363.664 190.162,366.331 195.5,369C 202.5,369.667 209.5,369.667 216.5,369C 219.455,366.928 222.788,365.595 226.5,365C 238.423,358.411 246.257,348.578 250,335.5C 251.738,323.606 250.238,312.272 245.5,301.5C 246.035,299.554 247.368,298.554 249.5,298.5C 251.474,300.428 252.974,302.761 254,305.5C 257.764,315.96 258.431,326.627 256,337.5C 241.151,371.001 216.651,381.167 182.5,368C 178.761,364.587 174.761,361.587 170.5,359C 167.683,354.357 164.349,350.19 160.5,346.5C 160.333,342.327 159,338.66 156.5,335.5C 156.5,334.5 156.5,333.5 156.5,332.5C 154.829,317.248 158.829,303.915 168.5,292.5C 172.291,289.882 175.957,287.049 179.5,284C 181.5,283.333 183.5,283.333 185.5,284C 184.207,284.49 182.873,284.657 181.5,284.5C 181.5,285.5 181.5,286.5 181.5,287.5 Z"/></g>
<g><path style="opacity:1" fill="#959aa0" d="M 222.5,359.5 C 223.5,359.5 224.5,359.5 225.5,359.5C 225.842,360.338 226.508,360.672 227.5,360.5C 218.332,366.123 208.332,367.957 197.5,366C 194.896,365.61 192.562,364.776 190.5,363.5C 193.167,363.833 195.833,364.167 198.5,364.5C 202.702,364.817 206.702,364.483 210.5,363.5C 214.416,363.975 217.749,362.975 220.5,360.5C 221.167,360.167 221.833,359.833 222.5,359.5 Z"/></g>
<g><path style="opacity:1" fill="#b99874" d="M 220.5,360.5 C 217.749,362.975 214.416,363.975 210.5,363.5C 208.473,363.662 206.473,363.495 204.5,363C 205.337,361.989 205.67,360.822 205.5,359.5C 210.482,360.053 215.482,360.387 220.5,360.5 Z"/></g>
<g><path style="opacity:1" fill="#bb997c" d="M 228.5,340.5 C 229.94,344.265 229.44,347.932 227,351.5C 225.091,351.673 223.257,352.007 221.5,352.5C 220.078,352.75 219.078,353.583 218.5,355C 213.279,355.392 209.613,353.225 207.5,348.5C 207.56,347.957 207.893,347.624 208.5,347.5C 209.518,348.193 210.518,348.859 211.5,349.5C 215.94,350.982 219.94,350.316 223.5,347.5C 225.706,345.545 227.372,343.212 228.5,340.5 Z"/></g>
<g><path style="opacity:1" fill="#4b2824" d="M 222.5,345.5 C 223.338,345.842 223.672,346.508 223.5,347.5C 219.94,350.316 215.94,350.982 211.5,349.5C 212.5,348.833 213.5,348.167 214.5,347.5C 217.341,347.44 220.007,346.774 222.5,345.5 Z"/></g>
<g><path style="opacity:1" fill="#3e4d52" d="M 232.5,333.5 C 232.833,333.5 233.167,333.5 233.5,333.5C 233.822,339.13 233.155,344.63 231.5,350C 231.862,351.434 232.528,352.601 233.5,353.5C 231.156,355.997 228.489,357.997 225.5,359.5C 224.5,359.5 223.5,359.5 222.5,359.5C 222.802,356.941 222.468,354.607 221.5,352.5C 223.257,352.007 225.091,351.673 227,351.5C 229.44,347.932 229.94,344.265 228.5,340.5C 228.158,339.662 227.492,339.328 226.5,339.5C 226.833,338.833 227.167,338.167 227.5,337.5C 227.833,337.5 228.167,337.5 228.5,337.5C 229.458,337.953 230.292,338.619 231,339.5C 232.319,337.75 232.819,335.75 232.5,333.5 Z"/></g>
<g><path style="opacity:1" fill="#57544e" d="M 226.5,339.5 C 227.492,339.328 228.158,339.662 228.5,340.5C 227.372,343.212 225.706,345.545 223.5,347.5C 223.672,346.508 223.338,345.842 222.5,345.5C 223.398,344.842 224.398,344.176 225.5,343.5C 225.167,343.167 224.833,342.833 224.5,342.5C 220.061,344.702 215.394,346.202 210.5,347C 211.793,347.49 213.127,347.657 214.5,347.5C 213.5,348.167 212.5,348.833 211.5,349.5C 210.518,348.859 209.518,348.193 208.5,347.5C 207.893,347.624 207.56,347.957 207.5,348.5C 206.355,347.207 206.689,346.041 208.5,345C 214.955,344.458 220.955,342.625 226.5,339.5 Z"/></g>
<g><path style="opacity:1" fill="#c2cfcf" d="M 222.5,345.5 C 220.007,346.774 217.341,347.44 214.5,347.5C 213.127,347.657 211.793,347.49 210.5,347C 215.394,346.202 220.061,344.702 224.5,342.5C 224.833,342.833 225.167,343.167 225.5,343.5C 224.398,344.176 223.398,344.842 222.5,345.5 Z"/></g>
<g><path style="opacity:1" fill="#282d73" d="M 167.5,317.5 C 168.434,318.568 168.768,319.901 168.5,321.5C 169.804,326.08 171.47,330.413 173.5,334.5C 174.833,334.5 176.167,334.5 177.5,334.5C 177.096,340.426 179.762,344.092 185.5,345.5C 187.607,346.468 189.941,346.802 192.5,346.5C 194.43,350.028 196.097,353.695 197.5,357.5C 194.674,357.998 192.34,359.331 190.5,361.5C 187.553,360.027 184.553,358.527 181.5,357C 174.243,349.999 169.41,341.499 167,331.5C 166.283,326.78 166.45,322.114 167.5,317.5 Z"/></g>
<g><path style="opacity:1" fill="#8190af" d="M 167.5,312.5 C 167.5,314.167 167.5,315.833 167.5,317.5C 166.45,322.114 166.283,326.78 167,331.5C 169.41,341.499 174.243,349.999 181.5,357C 184.553,358.527 187.553,360.027 190.5,361.5C 193.542,361.733 196.208,362.733 198.5,364.5C 195.833,364.167 193.167,363.833 190.5,363.5C 169.439,353.378 161.106,336.712 165.5,313.5C 166.167,313.167 166.833,312.833 167.5,312.5 Z"/></g>
<g><path style="opacity:1" fill="#c29870" d="M 218.5,331.5 C 220.195,333.213 221.028,335.213 221,337.5C 218.198,338.33 215.365,339.163 212.5,340C 214.058,340.21 215.391,340.71 216.5,341.5C 212.59,341.263 208.923,342.096 205.5,344C 203.963,345.11 203.297,346.61 203.5,348.5C 197.618,346.954 193.618,343.287 191.5,337.5C 191.747,336.287 192.414,335.62 193.5,335.5C 193.874,337.95 195.374,338.95 198,338.5C 202.95,338.35 207.283,336.683 211,333.5C 211.497,331.19 211.663,328.857 211.5,326.5C 215.202,326.226 217.535,327.892 218.5,331.5 Z"/></g>
<g><path style="opacity:1" fill="#59609e" d="M 245.5,328.5 C 245.066,338.585 241.066,346.919 233.5,353.5C 232.528,352.601 231.862,351.434 231.5,350C 233.155,344.63 233.822,339.13 233.5,333.5C 236.875,330.826 240.875,329.159 245.5,328.5 Z"/></g>
<g><path style="opacity:1" fill="#87624a" d="M 221.5,330.5 C 221.389,331.117 221.056,331.617 220.5,332C 222.438,335.056 225.105,336.889 228.5,337.5C 228.167,337.5 227.833,337.5 227.5,337.5C 223.777,338.522 220.11,339.855 216.5,341.5C 215.391,340.71 214.058,340.21 212.5,340C 215.365,339.163 218.198,338.33 221,337.5C 221.028,335.213 220.195,333.213 218.5,331.5C 219.391,330.89 220.391,330.557 221.5,330.5 Z"/></g>
<g><path style="opacity:1" fill="#c19b76" d="M 232.5,333.5 C 232.819,335.75 232.319,337.75 231,339.5C 230.292,338.619 229.458,337.953 228.5,337.5C 225.105,336.889 222.438,335.056 220.5,332C 221.056,331.617 221.389,331.117 221.5,330.5C 224.067,330.145 226.567,329.479 229,328.5C 229.772,328.645 230.439,328.978 231,329.5C 231.21,331.058 231.71,332.391 232.5,333.5 Z"/></g>
<g><path style="opacity:1" fill="#4764a4" d="M 243.5,308.5 C 244.558,309.6 245.392,310.934 246,312.5C 246.717,316.137 247.217,319.804 247.5,323.5C 247.444,325.64 246.777,327.306 245.5,328.5C 245.871,321.681 245.205,315.014 243.5,308.5 Z"/></g>
<g><path style="opacity:1" fill="#b4916d" d="M 227.5,317.5 C 228.566,319.701 229.233,322.035 229.5,324.5C 229.631,325.376 229.298,326.043 228.5,326.5C 225.96,327.402 223.46,328.402 221,329.5C 218.5,328.842 218,327.509 219.5,325.5C 222.254,324.869 224.088,323.202 225,320.5C 226.087,322.932 226.587,322.598 226.5,319.5C 224.131,319.851 221.797,320.018 219.5,320C 222.08,318.856 224.747,318.022 227.5,317.5 Z"/></g>
<g><path style="opacity:1" fill="#121e22" d="M 201.5,309.5 C 202.477,312.287 202.81,315.287 202.5,318.5C 203.978,318.238 205.311,318.571 206.5,319.5C 204.577,320.308 202.577,320.808 200.5,321C 199.295,322.376 197.962,323.542 196.5,324.5C 194.12,327.675 193.12,331.342 193.5,335.5C 192.414,335.62 191.747,336.287 191.5,337.5C 193.618,343.287 197.618,346.954 203.5,348.5C 203.297,346.61 203.963,345.11 205.5,344C 208.923,342.096 212.59,341.263 216.5,341.5C 220.11,339.855 223.777,338.522 227.5,337.5C 227.167,338.167 226.833,338.833 226.5,339.5C 220.955,342.625 214.955,344.458 208.5,345C 206.689,346.041 206.355,347.207 207.5,348.5C 209.613,353.225 213.279,355.392 218.5,355C 219.078,353.583 220.078,352.75 221.5,352.5C 222.468,354.607 222.802,356.941 222.5,359.5C 221.833,359.833 221.167,360.167 220.5,360.5C 215.482,360.387 210.482,360.053 205.5,359.5C 205.67,360.822 205.337,361.989 204.5,363C 206.473,363.495 208.473,363.662 210.5,363.5C 206.702,364.483 202.702,364.817 198.5,364.5C 196.208,362.733 193.542,361.733 190.5,361.5C 192.34,359.331 194.674,357.998 197.5,357.5C 196.097,353.695 194.43,350.028 192.5,346.5C 189.941,346.802 187.607,346.468 185.5,345.5C 179.762,344.092 177.096,340.426 177.5,334.5C 176.167,334.5 174.833,334.5 173.5,334.5C 171.47,330.413 169.804,326.08 168.5,321.5C 173.914,321.182 179.247,321.182 184.5,321.5C 187.136,318.468 190.469,316.635 194.5,316C 196.75,313.578 199.083,311.411 201.5,309.5 Z"/></g>
<g><path style="opacity:1" fill="#a78063" d="M 185.5,345.5 C 183.229,343.734 181.063,341.734 179,339.5C 177.707,336.138 178.707,334.138 182,333.5C 184.406,333.703 186.406,334.703 188,336.5C 189.722,339.279 190.889,342.279 191.5,345.5C 189.5,345.5 187.5,345.5 185.5,345.5 Z"/></g>
<g><path style="opacity:1" fill="#42433b" d="M 227.5,315.5 C 227.5,316.167 227.5,316.833 227.5,317.5C 224.747,318.022 222.08,318.856 219.5,320C 221.797,320.018 224.131,319.851 226.5,319.5C 226.587,322.598 226.087,322.932 225,320.5C 224.088,323.202 222.254,324.869 219.5,325.5C 218,327.509 218.5,328.842 221,329.5C 223.46,328.402 225.96,327.402 228.5,326.5C 229.298,326.043 229.631,325.376 229.5,324.5C 230.167,325.5 230.833,326.5 231.5,327.5C 232.341,329.379 232.675,331.379 232.5,333.5C 231.71,332.391 231.21,331.058 231,329.5C 230.439,328.978 229.772,328.645 229,328.5C 226.567,329.479 224.067,330.145 221.5,330.5C 220.391,330.557 219.391,330.89 218.5,331.5C 217.535,327.892 215.202,326.226 211.5,326.5C 211.663,328.857 211.497,331.19 211,333.5C 207.283,336.683 202.95,338.35 198,338.5C 195.374,338.95 193.874,337.95 193.5,335.5C 193.12,331.342 194.12,327.675 196.5,324.5C 196.735,325.097 197.235,325.43 198,325.5C 202.941,323.338 208.108,322.005 213.5,321.5C 217.539,318.15 222.206,316.15 227.5,315.5 Z"/></g>
<g><path style="opacity:1" fill="#bb9771" d="M 197.5,327.5 C 198.239,327.369 198.906,327.536 199.5,328C 198.5,329 197.5,330 196.5,331C 200.51,331.357 204.51,331.19 208.5,330.5C 208.439,333.05 207.106,334.55 204.5,335C 199.126,338.085 195.793,336.751 194.5,331C 195.071,329.401 196.071,328.234 197.5,327.5 Z"/></g>
<g><path style="opacity:1" fill="#c3d3d4" d="M 219.5,325.5 C 217.027,325.053 216.86,324.053 219,322.5C 220.728,323.352 220.895,324.352 219.5,325.5 Z"/></g>
<g><path style="opacity:1" fill="#c19771" d="M 216.5,301.5 C 216.707,306.284 219.04,309.284 223.5,310.5C 223.5,310.833 223.5,311.167 223.5,311.5C 225.773,311.957 227.106,313.29 227.5,315.5C 222.206,316.15 217.539,318.15 213.5,321.5C 208.108,322.005 202.941,323.338 198,325.5C 197.235,325.43 196.735,325.097 196.5,324.5C 197.962,323.542 199.295,322.376 200.5,321C 202.577,320.808 204.577,320.308 206.5,319.5C 205.311,318.571 203.978,318.238 202.5,318.5C 202.81,315.287 202.477,312.287 201.5,309.5C 201.286,307.856 201.62,306.356 202.5,305C 204.382,304.802 206.048,304.302 207.5,303.5C 209.973,303.201 212.14,302.201 214,300.5C 214.902,300.743 215.735,301.077 216.5,301.5 Z"/></g>
<g><path style="opacity:1" fill="#353498" d="M 231.5,316.5 C 231.279,315.265 230.612,314.265 229.5,313.5C 230.193,312.482 230.859,311.482 231.5,310.5C 230.271,307.865 230.271,305.199 231.5,302.5C 233.478,305.645 235.978,308.312 239,310.5C 240.439,315.762 240.772,321.096 240,326.5C 238.254,328.457 236.088,329.457 233.5,329.5C 234.097,324.706 233.43,320.373 231.5,316.5 Z"/></g>
<g><path style="opacity:1" fill="#3d3930" d="M 223.5,311.5 C 220.498,313.191 217.498,315.191 214.5,317.5C 214.167,317 213.833,316.5 213.5,316C 215.645,312.12 218.978,310.62 223.5,311.5 Z"/></g>
<g><path style="opacity:1" fill="#b0b2b1" d="M 162.5,351.5 C 168.291,360.289 175.958,366.956 185.5,371.5C 186.171,372.847 186.171,374.014 185.5,375C 186.793,375.49 188.127,375.657 189.5,375.5C 189.337,377.857 189.503,380.19 190,382.5C 191.699,381.594 193.533,381.261 195.5,381.5C 195.5,383.5 195.5,385.5 195.5,387.5C 198.045,387.151 200.045,387.984 201.5,390C 199.423,390.192 197.423,390.692 195.5,391.5C 198.124,392.616 200.79,393.616 203.5,394.5C 204.994,394.291 206.161,393.624 207,392.5C 207.483,393.448 207.649,394.448 207.5,395.5C 209.401,395.433 211.234,395.767 213,396.5C 218.903,394.257 224.736,391.923 230.5,389.5C 231.167,389.833 231.833,390.167 232.5,390.5C 231.754,391.736 231.421,393.07 231.5,394.5C 229.381,394.468 228.048,395.468 227.5,397.5C 225.447,397.402 223.78,398.069 222.5,399.5C 220.533,399.739 218.699,399.406 217,398.5C 216.52,400.133 215.687,401.466 214.5,402.5C 212.735,403.461 210.735,403.795 208.5,403.5C 204.116,404.376 199.783,405.376 195.5,406.5C 187.677,405.671 179.677,405.171 171.5,405C 172.167,404.667 172.833,404.333 173.5,404C 172.062,403.781 170.729,403.281 169.5,402.5C 168.726,398.094 166.393,394.927 162.5,393C 162.833,392.667 163.167,392.333 163.5,392C 162.242,387.891 160.408,384.058 158,380.5C 157.28,378.888 157.446,377.388 158.5,376C 156.963,374.89 156.297,373.39 156.5,371.5C 153.527,370.681 150.527,371.014 147.5,372.5C 150.136,369.7 152.969,367.033 156,364.5C 157.122,362.593 157.955,360.593 158.5,358.5C 161.754,359.043 164.254,360.71 166,363.5C 166.333,362.833 166.667,362.167 167,361.5C 167.718,362.451 168.551,362.617 169.5,362C 168.437,360.812 167.103,360.312 165.5,360.5C 165.023,357.345 164.023,354.345 162.5,351.5 Z"/></g>
<g><path style="opacity:0.733" fill="#763419" d="M 65.5,371.5 C 65.0269,372.906 64.0269,373.573 62.5,373.5C 62.9731,372.094 63.9731,371.427 65.5,371.5 Z"/></g>
<g><path style="opacity:0.004" fill="#191919" d="M 267.5,372.5 C 267.027,373.906 266.027,374.573 264.5,374.5C 264.973,373.094 265.973,372.427 267.5,372.5 Z"/></g>
<g><path style="opacity:1" fill="#e7ea99" d="M 108.5,364.5 C 109.561,368.053 110.561,371.719 111.5,375.5C 110.312,376.684 109.145,376.684 108,375.5C 107.502,372.518 107.335,369.518 107.5,366.5C 107.833,365.833 108.167,365.167 108.5,364.5 Z"/></g>
<g><path style="opacity:1" fill="#fd8e21" d="M 103.5,375.5 C 97.3466,376.328 91.0133,376.828 84.5,377C 82.8251,377.985 81.1585,378.819 79.5,379.5C 75.8333,380.167 72.1667,380.833 68.5,381.5C 68.6107,380.883 68.944,380.383 69.5,380C 80.4661,375.982 91.7995,374.482 103.5,375.5 Z"/></g>
<g><path style="opacity:0.612" fill="#76331c" d="M 59.5,375.5 C 57.7607,378.243 55.4274,380.243 52.5,381.5C 54.2393,378.757 56.5726,376.757 59.5,375.5 Z"/></g>
<g><path style="opacity:1" fill="#aba8a9" d="M 257.5,339.5 C 258.239,339.369 258.906,339.536 259.5,340C 258.648,342.417 257.981,344.917 257.5,347.5C 253.799,352.031 250.299,356.698 247,361.5C 246.5,362.5 246,363.5 245.5,364.5C 246.603,364.998 247.603,365.331 248.5,365.5C 247.289,367.422 245.956,369.255 244.5,371C 245.889,373.173 247.222,375.339 248.5,377.5C 255.128,373.201 261.128,368.201 266.5,362.5C 268.996,363.678 271.162,364.678 273,365.5C 273.483,364.552 273.649,363.552 273.5,362.5C 274.552,362.649 275.552,362.483 276.5,362C 275.391,360.187 276.058,359.354 278.5,359.5C 278.343,358.127 278.51,356.793 279,355.5C 279.953,357.373 281.12,357.706 282.5,356.5C 278.227,362.442 273.227,367.776 267.5,372.5C 265.973,372.427 264.973,373.094 264.5,374.5C 263.833,375.833 262.833,376.833 261.5,377.5C 259.973,377.427 258.973,378.094 258.5,379.5C 252.524,384.826 245.857,389.159 238.5,392.5C 236.62,392.229 235.287,392.896 234.5,394.5C 232.351,395.736 230.018,396.736 227.5,397.5C 228.048,395.468 229.381,394.468 231.5,394.5C 231.421,393.07 231.754,391.736 232.5,390.5C 231.833,390.167 231.167,389.833 230.5,389.5C 224.736,391.923 218.903,394.257 213,396.5C 211.234,395.767 209.401,395.433 207.5,395.5C 207.649,394.448 207.483,393.448 207,392.5C 206.161,393.624 204.994,394.291 203.5,394.5C 200.79,393.616 198.124,392.616 195.5,391.5C 197.423,390.692 199.423,390.192 201.5,390C 200.045,387.984 198.045,387.151 195.5,387.5C 195.5,385.5 195.5,383.5 195.5,381.5C 193.533,381.261 191.699,381.594 190,382.5C 189.503,380.19 189.337,377.857 189.5,375.5C 188.127,375.657 186.793,375.49 185.5,375C 186.171,374.014 186.171,372.847 185.5,371.5C 218.816,381.505 242.816,370.838 257.5,339.5 Z"/></g>
<g><path style="opacity:1" fill="#fbb72b" d="M 103.5,375.5 C 104.833,376.833 104.833,378.167 103.5,379.5C 95.6531,378.326 87.6531,378.326 79.5,379.5C 81.1585,378.819 82.8251,377.985 84.5,377C 91.0133,376.828 97.3466,376.328 103.5,375.5 Z"/></g>
<g><path style="opacity:0.008" fill="#1b1b1b" d="M 261.5,377.5 C 261.027,378.906 260.027,379.573 258.5,379.5C 258.973,378.094 259.973,377.427 261.5,377.5 Z"/></g>
<g><path style="opacity:1" fill="#170f0d" d="M 120.5,291.5 C 122.482,291.995 124.482,292.495 126.5,293C 127.789,294.802 129.456,295.969 131.5,296.5C 128.997,299.502 126.997,302.835 125.5,306.5C 116.763,319.006 113.43,332.673 115.5,347.5C 115.887,354.99 117.887,361.99 121.5,368.5C 122.614,369.776 123.614,369.776 124.5,368.5C 128.708,366.968 132.708,364.968 136.5,362.5C 139.696,361.071 142.696,359.405 145.5,357.5C 148.151,356.51 150.817,355.51 153.5,354.5C 155.761,355.095 157.428,356.429 158.5,358.5C 157.955,360.593 157.122,362.593 156,364.5C 152.969,367.033 150.136,369.7 147.5,372.5C 145.833,373.5 144.5,374.833 143.5,376.5C 139.88,378.453 136.88,381.119 134.5,384.5C 133.711,384.783 133.044,385.283 132.5,386C 136.729,390.398 141.062,394.564 145.5,398.5C 141.177,400.755 137.01,403.422 133,406.5C 132.814,409.036 132.314,411.369 131.5,413.5C 131.5,410.833 131.5,408.167 131.5,405.5C 129.435,405.483 127.435,405.15 125.5,404.5C 124.71,403.599 123.71,402.932 122.5,402.5C 122.167,402.5 121.833,402.5 121.5,402.5C 121.5,401.833 121.167,401.5 120.5,401.5C 120.134,400.305 119.301,399.639 118,399.5C 115.551,400.944 113.385,402.778 111.5,405C 101.208,408.417 90.8746,411.25 80.5,413.5C 79.5,413.5 78.5,413.5 77.5,413.5C 77.7553,410.984 78.5886,408.65 80,406.5C 85.1869,398.776 90.3535,391.109 95.5,383.5C 98.4848,382.674 101.151,381.341 103.5,379.5C 104.833,378.167 104.833,376.833 103.5,375.5C 103.5,372.833 103.5,370.167 103.5,367.5C 105.195,368.826 106.528,368.493 107.5,366.5C 107.335,369.518 107.502,372.518 108,375.5C 109.145,376.684 110.312,376.684 111.5,375.5C 114.626,374.612 116.959,372.778 118.5,370C 117.357,366.899 116.024,363.899 114.5,361C 112.934,360.7 111.601,361.2 110.5,362.5C 110.809,358.178 111.809,354.011 113.5,350C 113.066,347.432 112.4,344.932 111.5,342.5C 110.271,341.719 108.938,341.219 107.5,341C 106.748,340.329 106.414,339.496 106.5,338.5C 107.833,339.167 109.167,339.833 110.5,340.5C 111.473,338.052 111.806,335.385 111.5,332.5C 114.319,320.178 119.153,308.845 126,298.5C 126.49,297.207 126.657,295.873 126.5,294.5C 123.911,294.539 121.911,293.539 120.5,291.5 Z"/></g>
<g><path style="opacity:1" fill="#cdd0ab" d="M 143.5,376.5 C 144.5,376.5 145.5,376.5 146.5,376.5C 146.838,378.854 147.338,381.187 148,383.5C 151.869,389.922 155.703,396.256 159.5,402.5C 154.133,400.81 149.799,397.643 146.5,393C 142.159,392.163 139.159,389.663 137.5,385.5C 136.583,384.873 135.583,384.539 134.5,384.5C 136.88,381.119 139.88,378.453 143.5,376.5 Z"/></g>
<g><path style="opacity:0.58" fill="#5f2e19" d="M 48.5,385.5 C 48.573,387.027 47.9063,388.027 46.5,388.5C 46.427,386.973 47.0937,385.973 48.5,385.5 Z"/></g>
<g><path style="opacity:1" fill="#e73408" d="M 132.5,368.5 C 136.439,368.178 137.272,369.511 135,372.5C 130.046,378.291 124.88,383.957 119.5,389.5C 113.825,393.846 108.492,398.512 103.5,403.5C 98.3146,405.463 92.9813,406.796 87.5,407.5C 91.1096,401.384 94.943,395.384 99,389.5C 104.402,385.25 109.902,381.25 115.5,377.5C 120.684,373.74 126.35,370.74 132.5,368.5 Z"/></g>
<g><path style="opacity:1" fill="#bfc3ae" d="M 195.5,406.5 C 184.682,407.721 174.015,407.721 163.5,406.5C 165.527,406.662 167.527,406.495 169.5,406C 165.948,405.122 162.614,403.956 159.5,402.5C 155.703,396.256 151.869,389.922 148,383.5C 147.338,381.187 146.838,378.854 146.5,376.5C 145.5,376.5 144.5,376.5 143.5,376.5C 144.5,374.833 145.833,373.5 147.5,372.5C 150.527,371.014 153.527,370.681 156.5,371.5C 156.297,373.39 156.963,374.89 158.5,376C 157.446,377.388 157.28,378.888 158,380.5C 160.408,384.058 162.242,387.891 163.5,392C 163.167,392.333 162.833,392.667 162.5,393C 166.393,394.927 168.726,398.094 169.5,402.5C 170.729,403.281 172.062,403.781 173.5,404C 172.833,404.333 172.167,404.667 171.5,405C 179.677,405.171 187.677,405.671 195.5,406.5 Z"/></g>
<g><path style="opacity:0.49" fill="#78321a" d="M 46.5,388.5 C 46.573,390.027 45.9063,391.027 44.5,391.5C 44.427,389.973 45.0937,388.973 46.5,388.5 Z"/></g>
<g><path style="opacity:0.008" fill="#171818" d="M 238.5,392.5 C 237.486,393.674 236.153,394.34 234.5,394.5C 235.287,392.896 236.62,392.229 238.5,392.5 Z"/></g>
<g><path style="opacity:1" fill="#fced85" d="M 84.5,385.5 C 78.4567,392.777 71.4567,399.444 63.5,405.5C 64.2026,403.284 65.5359,401.451 67.5,400C 70.6667,397.5 73.8333,395 77,392.5C 76.7924,387.206 79.2924,384.873 84.5,385.5 Z"/></g>
<g><path style="opacity:1" fill="#bbbc7a" d="M 134.5,402.5 C 130.508,400.17 126.508,397.837 122.5,395.5C 124.528,392.281 127.195,390.114 130.5,389C 133.833,392.333 137.167,395.667 140.5,399C 138.868,400.82 136.868,401.986 134.5,402.5 Z"/></g>
<g><path style="opacity:1" fill="#f9f7c4" d="M 95.5,383.5 C 90.3535,391.109 85.1869,398.776 80,406.5C 78.5886,408.65 77.7553,410.984 77.5,413.5C 76.7656,412.122 76.0989,410.622 75.5,409C 71.098,408.384 67.098,407.218 63.5,405.5C 71.4567,399.444 78.4567,392.777 84.5,385.5C 87.8756,383.918 91.5422,383.251 95.5,383.5 Z"/></g>
<g><path style="opacity:1" fill="#e8eb9b" d="M 134.5,384.5 C 135.583,384.539 136.583,384.873 137.5,385.5C 139.159,389.663 142.159,392.163 146.5,393C 149.799,397.643 154.133,400.81 159.5,402.5C 162.614,403.956 165.948,405.122 169.5,406C 167.527,406.495 165.527,406.662 163.5,406.5C 158.84,405.67 154.507,404.003 150.5,401.5C 148.336,401.279 146.67,400.279 145.5,398.5C 141.062,394.564 136.729,390.398 132.5,386C 133.044,385.283 133.711,384.783 134.5,384.5 Z"/></g>
<g><path style="opacity:1" fill="#fc9520" d="M 61.5,387.5 C 59.7649,389.235 58.4316,391.235 57.5,393.5C 58.9333,395.336 59.4333,397.336 59,399.5C 55.5952,401.402 53.0952,404.069 51.5,407.5C 50.5,408.167 49.5,408.833 48.5,409.5C 49.4798,406.884 50.9798,404.551 53,402.5C 52.4551,395.426 55.2884,390.426 61.5,387.5 Z"/></g>
<g><path style="opacity:1" fill="#edee9b" d="M 122.5,395.5 C 126.508,397.837 130.508,400.17 134.5,402.5C 129.017,402.924 124.683,400.924 121.5,396.5C 121.624,395.893 121.957,395.56 122.5,395.5 Z"/></g>
<g><path style="opacity:1" fill="#950607" d="M 103.5,403.5 C 108.492,398.512 113.825,393.846 119.5,389.5C 124.88,383.957 130.046,378.291 135,372.5C 137.272,369.511 136.439,368.178 132.5,368.5C 139.315,364.094 146.649,360.76 154.5,358.5C 153.909,361.614 152.242,364.114 149.5,366C 135.535,377.963 121.868,390.297 108.5,403C 106.866,403.494 105.199,403.66 103.5,403.5 Z"/></g>
<g><path style="opacity:0.993" fill="#5d5e5e" d="M 222.5,399.5 C 220.208,401.267 217.542,402.267 214.5,402.5C 215.687,401.466 216.52,400.133 217,398.5C 218.699,399.406 220.533,399.739 222.5,399.5 Z"/></g>
<g><path style="opacity:0.11" fill="#292929" d="M 227.5,397.5 C 226.22,398.931 224.553,399.598 222.5,399.5C 223.78,398.069 225.447,397.402 227.5,397.5 Z"/></g>
<g><path style="opacity:1" fill="#fcbe27" d="M 79.5,379.5 C 71.4827,382.496 64.4827,387.162 58.5,393.5C 59.6888,394.429 61.0222,394.762 62.5,394.5C 62.6567,395.873 62.49,397.207 62,398.5C 58.3332,401.336 54.8332,404.336 51.5,407.5C 53.0952,404.069 55.5952,401.402 59,399.5C 59.4333,397.336 58.9333,395.336 57.5,393.5C 58.4316,391.235 59.7649,389.235 61.5,387.5C 64.1316,385.709 66.4649,383.709 68.5,381.5C 72.1667,380.833 75.8333,380.167 79.5,379.5 Z"/></g>
<g><path style="opacity:1" fill="#eae191" d="M 115.5,377.5 C 109.902,381.25 104.402,385.25 99,389.5C 94.943,395.384 91.1096,401.384 87.5,407.5C 86.2015,409.099 84.5348,409.599 82.5,409C 87.2095,401.747 92.0428,394.58 97,387.5C 102.981,383.76 109.148,380.427 115.5,377.5 Z"/></g>
<g><path style="opacity:0.945" fill="#953e23" d="M 38.5,402.5 C 38.8337,405.491 37.8337,407.824 35.5,409.5C 35.9348,406.843 36.9348,404.509 38.5,402.5 Z"/></g>
<g><path style="opacity:1" fill="#fdda31" d="M 103.5,379.5 C 101.151,381.341 98.4848,382.674 95.5,383.5C 91.5422,383.251 87.8756,383.918 84.5,385.5C 79.2924,384.873 76.7924,387.206 77,392.5C 73.8333,395 70.6667,397.5 67.5,400C 65.5359,401.451 64.2026,403.284 63.5,405.5C 67.098,407.218 71.098,408.384 75.5,409C 76.0989,410.622 76.7656,412.122 77.5,413.5C 78.209,414.404 79.209,414.737 80.5,414.5C 79.9492,417.807 79.6159,421.14 79.5,424.5C 85.0262,424.821 90.3595,424.488 95.5,423.5C 97.1992,423.66 98.8659,423.494 100.5,423C 109.153,419.21 114.653,412.71 117,403.5C 117.816,402.177 118.983,401.511 120.5,401.5C 121.167,401.5 121.5,401.833 121.5,402.5C 121.095,412.708 117.095,421.208 109.5,428C 97.6127,434.014 84.946,437.181 71.5,437.5C 71.6653,433.818 71.4986,430.152 71,426.5C 70.2917,425.619 69.4584,424.953 68.5,424.5C 68.631,423.761 68.4643,423.094 68,422.5C 66.6976,421.915 65.531,421.249 64.5,420.5C 63.3064,419.223 61.6397,418.556 59.5,418.5C 55.0032,418.89 50.6698,419.89 46.5,421.5C 46.5965,416.206 48.2632,411.54 51.5,407.5C 54.8332,404.336 58.3332,401.336 62,398.5C 62.49,397.207 62.6567,395.873 62.5,394.5C 61.0222,394.762 59.6888,394.429 58.5,393.5C 64.4827,387.162 71.4827,382.496 79.5,379.5C 87.6531,378.326 95.6531,378.326 103.5,379.5 Z"/></g>
<g><path style="opacity:1" fill="#1a110d" d="M 150.5,401.5 C 154.507,404.003 158.84,405.67 163.5,406.5C 174.015,407.721 184.682,407.721 195.5,406.5C 199.783,405.376 204.116,404.376 208.5,403.5C 208.822,409.358 208.489,415.025 207.5,420.5C 207.5,416.167 207.5,411.833 207.5,407.5C 204.219,407.42 201.219,408.087 198.5,409.5C 188.907,410.954 179.241,411.62 169.5,411.5C 166.833,411.167 164.167,410.833 161.5,410.5C 160.348,409.375 159.348,409.375 158.5,410.5C 155.754,407.486 153.087,404.486 150.5,401.5 Z"/></g>
<g><path style="opacity:1" fill="#f9f8c4" d="M 120.5,401.5 C 118.983,401.511 117.816,402.177 117,403.5C 114.653,412.71 109.153,419.21 100.5,423C 98.8659,423.494 97.1992,423.66 95.5,423.5C 90.5,423.5 85.5,423.5 80.5,423.5C 81.4435,420.001 81.4435,416.668 80.5,413.5C 90.8746,411.25 101.208,408.417 111.5,405C 113.385,402.778 115.551,400.944 118,399.5C 119.301,399.639 120.134,400.305 120.5,401.5 Z"/></g>
<g><path style="opacity:1" fill="#7d0c12" d="M 198.5,409.5 C 188.965,412.418 179.299,413.085 169.5,411.5C 179.241,411.62 188.907,410.954 198.5,409.5 Z"/></g>
<g><path style="opacity:1" fill="#9b0f08" d="M 207.5,420.5 C 207.737,421.791 207.404,422.791 206.5,423.5C 204,426.494 202,429.827 200.5,433.5C 199.833,434.833 198.833,435.833 197.5,436.5C 195.973,436.427 194.973,437.094 194.5,438.5C 189.795,440.853 185.128,443.186 180.5,445.5C 178.786,446.738 176.786,447.405 174.5,447.5C 171.098,447.342 167.764,447.676 164.5,448.5C 164.062,448.565 163.728,448.399 163.5,448C 164.759,447.077 166.092,446.243 167.5,445.5C 166.051,444.828 164.718,444.161 163.5,443.5C 164.167,443.5 164.5,443.167 164.5,442.5C 169.157,440.94 173.49,438.94 177.5,436.5C 186.774,432.553 193.774,426.22 198.5,417.5C 190.85,418.143 183.183,418.477 175.5,418.5C 171.019,418.032 166.686,417.032 162.5,415.5C 161.962,413.883 161.629,412.216 161.5,410.5C 164.167,410.833 166.833,411.167 169.5,411.5C 179.299,413.085 188.965,412.418 198.5,409.5C 201.219,408.087 204.219,407.42 207.5,407.5C 207.5,411.833 207.5,416.167 207.5,420.5 Z"/></g>
<g><path style="opacity:1" fill="#fa9121" d="M 122.5,402.5 C 123.71,402.932 124.71,403.599 125.5,404.5C 124.677,413.077 121.344,420.577 115.5,427C 113.266,428.75 110.932,430.25 108.5,431.5C 111.774,428.277 114.941,424.944 118,421.5C 121.051,415.517 122.551,409.184 122.5,402.5 Z"/></g>
<g><path style="opacity:0.451" fill="#5e2513" d="M 35.5,410.5 C 35.5905,413.152 34.9238,415.485 33.5,417.5C 33.4095,414.848 34.0762,412.515 35.5,410.5 Z"/></g>
<g><path style="opacity:1" fill="#fcb326" d="M 51.5,407.5 C 48.2632,411.54 46.5965,416.206 46.5,421.5C 50.6698,419.89 55.0032,418.89 59.5,418.5C 61.6397,418.556 63.3064,419.223 64.5,420.5C 60.8183,420.335 57.1516,420.501 53.5,421C 50.469,423.015 47.1357,424.181 43.5,424.5C 43.78,418.993 45.4466,413.993 48.5,409.5C 49.5,408.833 50.5,408.167 51.5,407.5 Z"/></g>
<g><path style="opacity:1" fill="#f76a1e" d="M 125.5,404.5 C 127.435,405.15 129.435,405.483 131.5,405.5C 131.5,408.167 131.5,410.833 131.5,413.5C 131.706,416.495 131.04,419.162 129.5,421.5C 128.326,422.514 127.66,423.847 127.5,425.5C 127.771,427.38 127.104,428.713 125.5,429.5C 124.094,429.973 123.427,430.973 123.5,432.5C 123.5,433.167 123.167,433.5 122.5,433.5C 121.069,433.119 120.236,432.119 120,430.5C 119.742,433.686 118.075,435.686 115,436.5C 114.51,437.793 114.343,439.127 114.5,440.5C 113.178,440.67 112.011,440.337 111,439.5C 110.51,440.793 110.343,442.127 110.5,443.5C 108.574,445.293 106.241,446.293 103.5,446.5C 101.62,446.229 100.287,446.896 99.5,448.5C 96.6967,449.928 93.6967,450.595 90.5,450.5C 79.8568,451.345 69.1902,451.679 58.5,451.5C 55.7628,451.599 53.0961,451.265 50.5,450.5C 49.6016,449.842 48.6016,449.176 47.5,448.5C 47.8627,447.817 48.1961,447.15 48.5,446.5C 50.0495,445.559 51.7162,444.893 53.5,444.5C 55.8333,444.167 57.1667,442.833 57.5,440.5C 57.3284,439.508 57.6618,438.842 58.5,438.5C 60.093,435.229 59.4263,432.396 56.5,430C 50.5797,429.518 44.5797,429.018 38.5,428.5C 39.0058,420.48 42.3391,414.147 48.5,409.5C 45.4466,413.993 43.78,418.993 43.5,424.5C 47.1357,424.181 50.469,423.015 53.5,421C 57.1516,420.501 60.8183,420.335 64.5,420.5C 65.531,421.249 66.6976,421.915 68,422.5C 68.4643,423.094 68.631,423.761 68.5,424.5C 69.2276,429.451 69.7276,434.451 70,439.5C 70.5613,440.022 71.228,440.355 72,440.5C 84.4004,438.422 96.5671,435.422 108.5,431.5C 110.932,430.25 113.266,428.75 115.5,427C 121.344,420.577 124.677,413.077 125.5,404.5 Z"/></g>
<g><path style="opacity:1" fill="#f7e573" d="M 77.5,413.5 C 78.5,413.5 79.5,413.5 80.5,413.5C 81.4435,416.668 81.4435,420.001 80.5,423.5C 85.5,423.5 90.5,423.5 95.5,423.5C 90.3595,424.488 85.0262,424.821 79.5,424.5C 79.6159,421.14 79.9492,417.807 80.5,414.5C 79.209,414.737 78.209,414.404 77.5,413.5 Z"/></g>
<g><path style="opacity:1" fill="#ef5b21" d="M 162.5,416.5 C 162.5,416.167 162.5,415.833 162.5,415.5C 166.686,417.032 171.019,418.032 175.5,418.5C 174.645,419.531 173.978,420.697 173.5,422C 174.084,426.501 174.751,431.001 175.5,435.5C 176.183,435.863 176.85,436.196 177.5,436.5C 173.49,438.94 169.157,440.94 164.5,442.5C 163.351,439.903 163.684,437.403 165.5,435C 164.851,432.598 164.851,430.098 165.5,427.5C 164.087,424.55 163.087,420.883 162.5,416.5 Z"/></g>
<g><path style="opacity:1" fill="#eb3508" d="M 177.5,436.5 C 176.85,436.196 176.183,435.863 175.5,435.5C 174.751,431.001 174.084,426.501 173.5,422C 173.978,420.697 174.645,419.531 175.5,418.5C 183.183,418.477 190.85,418.143 198.5,417.5C 193.774,426.22 186.774,432.553 177.5,436.5 Z"/></g>
<g><path style="opacity:0.129" fill="#3b1810" d="M 129.5,421.5 C 129.771,423.38 129.104,424.713 127.5,425.5C 127.66,423.847 128.326,422.514 129.5,421.5 Z"/></g>
<g><path style="opacity:1" fill="#f07231" d="M 162.5,416.5 C 163.087,420.883 164.087,424.55 165.5,427.5C 164.851,430.098 164.851,432.598 165.5,435C 163.684,437.403 163.351,439.903 164.5,442.5C 164.5,443.167 164.167,443.5 163.5,443.5C 160.302,444.787 156.969,445.453 153.5,445.5C 159.915,436.921 162.915,427.254 162.5,416.5 Z"/></g>
<g><path style="opacity:0.533" fill="#460708" d="M 206.5,423.5 C 205.502,427.505 203.502,430.839 200.5,433.5C 202,429.827 204,426.494 206.5,423.5 Z"/></g>
<g><path style="opacity:0.008" fill="#371910" d="M 125.5,429.5 C 125.573,431.027 124.906,432.027 123.5,432.5C 123.427,430.973 124.094,429.973 125.5,429.5 Z"/></g>
<g><path style="opacity:1" fill="#b24b1d" d="M 122.5,433.5 C 120.431,436.573 117.764,438.906 114.5,440.5C 114.343,439.127 114.51,437.793 115,436.5C 118.075,435.686 119.742,433.686 120,430.5C 120.236,432.119 121.069,433.119 122.5,433.5 Z"/></g>
<g><path style="opacity:0.008" fill="#3e1910" d="M 42.5,434.5 C 42.0269,435.906 41.0269,436.573 39.5,436.5C 39.9731,435.094 40.9731,434.427 42.5,434.5 Z"/></g>
<g><path style="opacity:1" fill="#fcb625" d="M 121.5,402.5 C 121.833,402.5 122.167,402.5 122.5,402.5C 122.551,409.184 121.051,415.517 118,421.5C 114.941,424.944 111.774,428.277 108.5,431.5C 96.5671,435.422 84.4004,438.422 72,440.5C 71.228,440.355 70.5613,440.022 70,439.5C 69.7276,434.451 69.2276,429.451 68.5,424.5C 69.4584,424.953 70.2917,425.619 71,426.5C 71.4986,430.152 71.6653,433.818 71.5,437.5C 84.946,437.181 97.6127,434.014 109.5,428C 117.095,421.208 121.095,412.708 121.5,402.5 Z"/></g>
<g><path style="opacity:0.027" fill="#280704" d="M 197.5,436.5 C 197.027,437.906 196.027,438.573 194.5,438.5C 194.973,437.094 195.973,436.427 197.5,436.5 Z"/></g>
<g><path style="opacity:0.463" fill="#3f0706" d="M 194.5,438.5 C 190.699,442.4 186.033,444.734 180.5,445.5C 185.128,443.186 189.795,440.853 194.5,438.5 Z"/></g>
<g><path style="opacity:1" fill="#a5481e" d="M 114.5,440.5 C 113.564,441.974 112.23,442.974 110.5,443.5C 110.343,442.127 110.51,440.793 111,439.5C 112.011,440.337 113.178,440.67 114.5,440.5 Z"/></g>
<g><path style="opacity:0.612" fill="#86875f" d="M 153.5,438.5 C 153.573,440.027 152.906,441.027 151.5,441.5C 151.427,439.973 152.094,438.973 153.5,438.5 Z"/></g>
<g><path style="opacity:0.682" fill="#813821" d="M 57.5,440.5 C 57.1667,442.833 55.8333,444.167 53.5,444.5C 54.5,442.833 55.8333,441.5 57.5,440.5 Z"/></g>
<g><path style="opacity:0.004" fill="#301812" d="M 33.5,444.5 C 33.2893,446.424 32.6226,446.757 31.5,445.5C 32.1667,445.167 32.8333,444.833 33.5,444.5 Z"/></g>
<g><path style="opacity:1" fill="#b04d2e" d="M 163.5,443.5 C 164.718,444.161 166.051,444.828 167.5,445.5C 166.092,446.243 164.759,447.077 163.5,448C 163.728,448.399 164.062,448.565 164.5,448.5C 163.087,449.935 161.42,450.935 159.5,451.5C 158.432,452.434 157.099,452.768 155.5,452.5C 152.833,452.5 150.167,452.5 147.5,452.5C 149.529,450.142 151.529,447.808 153.5,445.5C 156.969,445.453 160.302,444.787 163.5,443.5 Z"/></g>
<g><path style="opacity:0.02" fill="#37170e" d="M 103.5,446.5 C 102.486,447.674 101.153,448.34 99.5,448.5C 100.287,446.896 101.62,446.229 103.5,446.5 Z"/></g>
<g><path style="opacity:0.894" fill="#57231b" d="M 174.5,447.5 C 169.888,449.905 164.888,451.238 159.5,451.5C 161.42,450.935 163.087,449.935 164.5,448.5C 167.764,447.676 171.098,447.342 174.5,447.5 Z"/></g>
<g><path style="opacity:0.345" fill="#502215" d="M 48.5,446.5 C 48.1961,447.15 47.8627,447.817 47.5,448.5C 48.6016,449.176 49.6016,449.842 50.5,450.5C 48.8561,450.714 47.3561,450.38 46,449.5C 45.4808,447.511 46.3141,446.511 48.5,446.5 Z"/></g>
<g><path style="opacity:0.69" fill="#79785b" d="M 145.5,448.5 C 144.415,450.587 142.749,451.92 140.5,452.5C 141.585,450.413 143.251,449.08 145.5,448.5 Z"/></g>
<g><path style="opacity:1" fill="#e1dc8d" d="M 161.5,410.5 C 161.629,412.216 161.962,413.883 162.5,415.5C 162.5,415.833 162.5,416.167 162.5,416.5C 162.915,427.254 159.915,436.921 153.5,445.5C 151.529,447.808 149.529,450.142 147.5,452.5C 146.5,452.833 145.833,453.5 145.5,454.5C 144.167,454.5 142.833,454.5 141.5,454.5C 139.302,454.591 138.969,453.925 140.5,452.5C 142.749,451.92 144.415,450.587 145.5,448.5C 146.781,445.553 148.781,443.219 151.5,441.5C 152.906,441.027 153.573,440.027 153.5,438.5C 158.252,429.738 159.919,420.404 158.5,410.5C 159.348,409.375 160.348,409.375 161.5,410.5 Z"/></g>
<g><path style="opacity:0.678" fill="#84381f" d="M 90.5,450.5 C 84.5809,452.045 78.4142,452.711 72,452.5C 67.3205,452.499 62.8205,452.166 58.5,451.5C 69.1902,451.679 79.8568,451.345 90.5,450.5 Z"/></g>
<g><path style="opacity:0.663" fill="#48251c" d="M 147.5,452.5 C 150.167,452.5 152.833,452.5 155.5,452.5C 152.456,454.011 149.122,454.678 145.5,454.5C 145.833,453.5 146.5,452.833 147.5,452.5 Z"/></g>
<g><path style="opacity:0.365" fill="#424235" d="M 140.5,452.5 C 138.969,453.925 139.302,454.591 141.5,454.5C 140.292,455.782 138.958,455.782 137.5,454.5C 138.005,453.081 139.005,452.415 140.5,452.5 Z"/></g>
</svg>
