<?xml version="1.0" encoding="UTF-8"?>
<!DOCTYPE svg PUBLIC "-//W3C//DTD SVG 1.1//EN" "http://www.w3.org/Graphics/SVG/1.1/DTD/svg11.dtd">
<svg xmlns="http://www.w3.org/2000/svg" version="1.1" width="366px" height="681px" style="shape-rendering:geometricPrecision; text-rendering:geometricPrecision; image-rendering:optimizeQuality; fill-rule:evenodd; clip-rule:evenodd" xmlns:xlink="http://www.w3.org/1999/xlink">
<g><path style="opacity:1" fill="#dddcdd" d="M 192.5,164.5 C 196.946,167.076 201.946,169.743 207.5,172.5C 205.957,179.129 204.623,185.795 203.5,192.5C 183.185,184.832 162.185,179.832 140.5,177.5C 135.651,176.834 130.651,176.167 125.5,175.5C 128.193,169.153 130.859,162.82 133.5,156.5C 153.839,154.504 173.506,157.17 192.5,164.5 Z"/></g>
<g><path style="opacity:1" fill="#c5c5c5" d="M 133.5,156.5 C 130.859,162.82 128.193,169.153 125.5,175.5C 130.651,176.167 135.651,176.834 140.5,177.5C 131.983,177.174 123.65,177.507 115.5,178.5C 111.046,178.422 106.713,179.089 102.5,180.5C 101.702,180.043 101.369,179.376 101.5,178.5C 104.44,173.472 107.774,168.639 111.5,164C 118.303,160.01 125.637,157.51 133.5,156.5 Z"/></g>
<g><path style="opacity:1" fill="#6d6161" d="M 242.5,202.5 C 241.616,199.977 240.782,197.31 240,194.5C 239.329,193.748 238.496,193.414 237.5,193.5C 226.002,178.718 211.002,169.051 192.5,164.5C 173.506,157.17 153.839,154.504 133.5,156.5C 125.637,157.51 118.303,160.01 111.5,164C 107.774,168.639 104.44,173.472 101.5,178.5C 101.737,177.209 101.404,176.209 100.5,175.5C 103.785,165.663 110.452,159.163 120.5,156C 135.653,150.918 150.986,150.251 166.5,154C 189.225,157.458 209.892,165.792 228.5,179C 236.394,184.635 241.394,192.135 243.5,201.5C 243.376,202.107 243.043,202.44 242.5,202.5 Z"/></g>
<g><path style="opacity:1" fill="#e4e4e4" d="M 192.5,164.5 C 211.002,169.051 226.002,178.718 237.5,193.5C 239.667,200.349 240,207.349 238.5,214.5C 227.546,205.866 215.879,198.532 203.5,192.5C 204.623,185.795 205.957,179.129 207.5,172.5C 201.946,169.743 196.946,167.076 192.5,164.5 Z"/></g>
<g><path style="opacity:1" fill="#dedede" d="M 121.5,180.5 C 164.094,178.979 202.428,190.812 236.5,216C 239.305,219.141 242.138,222.308 245,225.5C 245.49,226.793 245.657,228.127 245.5,229.5C 244.698,230.952 244.198,232.618 244,234.5C 238.242,227.866 231.742,222.033 224.5,217C 197.169,200.251 167.502,191.084 135.5,189.5C 129.355,188.51 123.022,188.177 116.5,188.5C 116.448,186.097 116.781,183.764 117.5,181.5C 118.708,180.766 120.041,180.433 121.5,180.5 Z"/></g>
<g><path style="opacity:1" fill="#bdbdbd" d="M 117.5,181.5 C 116.781,183.764 116.448,186.097 116.5,188.5C 123.022,188.177 129.355,188.51 135.5,189.5C 125.161,189.334 114.828,189.5 104.5,190C 98.6533,190.998 93.1533,192.832 88,195.5C 87.3269,190.491 89.4936,187.324 94.5,186C 101.848,182.897 109.515,181.397 117.5,181.5 Z"/></g>
<g><path style="opacity:1" fill="#706f6f" d="M 115.5,178.5 C 123.65,177.507 131.983,177.174 140.5,177.5C 162.185,179.832 183.185,184.832 203.5,192.5C 215.879,198.532 227.546,205.866 238.5,214.5C 240,207.349 239.667,200.349 237.5,193.5C 238.496,193.414 239.329,193.748 240,194.5C 240.782,197.31 241.616,199.977 242.5,202.5C 242.5,203.833 242.5,205.167 242.5,206.5C 241.669,210.476 241.503,214.476 242,218.5C 242.383,219.056 242.883,219.389 243.5,219.5C 244.5,219.833 245.167,220.5 245.5,221.5C 246.657,224.307 246.657,226.974 245.5,229.5C 245.657,228.127 245.49,226.793 245,225.5C 242.138,222.308 239.305,219.141 236.5,216C 202.428,190.812 164.094,178.979 121.5,180.5C 119.898,178.926 117.898,178.259 115.5,178.5 Z"/></g>
<g><path style="opacity:1" fill="#676463" d="M 100.5,175.5 C 101.404,176.209 101.737,177.209 101.5,178.5C 101.369,179.376 101.702,180.043 102.5,180.5C 106.713,179.089 111.046,178.422 115.5,178.5C 117.898,178.259 119.898,178.926 121.5,180.5C 120.041,180.433 118.708,180.766 117.5,181.5C 109.515,181.397 101.848,182.897 94.5,186C 89.4936,187.324 87.3269,190.491 88,195.5C 93.1533,192.832 98.6533,190.998 104.5,190C 114.828,189.5 125.161,189.334 135.5,189.5C 167.502,191.084 197.169,200.251 224.5,217C 231.742,222.033 238.242,227.866 244,234.5C 244.198,232.618 244.698,230.952 245.5,229.5C 246.657,226.974 246.657,224.307 245.5,221.5C 247.828,223.166 248.828,225.499 248.5,228.5C 248.759,237.671 244.759,244.005 236.5,247.5C 236.892,245.821 237.392,244.154 238,242.5C 243.764,239.732 243.931,236.732 238.5,233.5C 234.344,228.183 229.344,223.683 223.5,220C 202.653,207.442 180.319,198.942 156.5,194.5C 138.914,192.49 121.247,191.99 103.5,193C 99.0953,193.851 95.0953,195.351 91.5,197.5C 90.5084,197.328 89.8417,197.662 89.5,198.5C 88.1529,199.171 86.9862,199.171 86,198.5C 85.5045,196.527 85.3379,194.527 85.5,192.5C 85.2471,190.173 85.9137,188.173 87.5,186.5C 90.3479,184.576 93.3479,182.909 96.5,181.5C 97.3611,179.089 98.6944,177.089 100.5,175.5 Z"/></g>
<g><path style="opacity:1" fill="#27201e" d="M 156.5,194.5 C 157.588,198.748 160.255,200.248 164.5,199C 163.294,197.982 163.627,197.482 165.5,197.5C 169.893,200.238 169.393,201.571 164,201.5C 147.603,198.734 131.103,197.901 114.5,199C 106.814,199.588 99.4806,201.422 92.5,204.5C 92.8016,201.941 92.4682,199.607 91.5,197.5C 95.0953,195.351 99.0953,193.851 103.5,193C 121.247,191.99 138.914,192.49 156.5,194.5 Z"/></g>
<g><path style="opacity:1" fill="#5d5051" d="M 85.5,192.5 C 85.3379,194.527 85.5045,196.527 86,198.5C 86.9862,199.171 88.1529,199.171 89.5,198.5C 88.9736,202.312 88.3069,205.979 87.5,209.5C 81.5001,204.49 80.8334,198.823 85.5,192.5 Z"/></g>
<g><path style="opacity:1" fill="#0e0607" d="M 91.5,197.5 C 92.4682,199.607 92.8016,201.941 92.5,204.5C 90.7716,210.238 90.1049,216.238 90.5,222.5C 89.609,223.11 88.609,223.443 87.5,223.5C 87.5,220.833 87.5,218.167 87.5,215.5C 87.5,213.5 87.5,211.5 87.5,209.5C 88.3069,205.979 88.9736,202.312 89.5,198.5C 89.8417,197.662 90.5084,197.328 91.5,197.5 Z"/></g>
<g><path style="opacity:1" fill="#342b28" d="M 156.5,194.5 C 180.319,198.942 202.653,207.442 223.5,220C 229.344,223.683 234.344,228.183 238.5,233.5C 238.672,234.492 238.338,235.158 237.5,235.5C 235.909,233.563 234.242,231.563 232.5,229.5C 224.167,224.667 215.833,219.833 207.5,215C 196.597,211.084 185.597,207.418 174.5,204C 165.863,202.225 157.197,202.058 148.5,203.5C 148.5,207.833 148.5,212.167 148.5,216.5C 144.534,217.162 140.534,217.495 136.5,217.5C 137.417,211.975 135.417,209.975 130.5,211.5C 130.325,213.621 130.659,215.621 131.5,217.5C 117.418,216.739 103.752,218.406 90.5,222.5C 90.1049,216.238 90.7716,210.238 92.5,204.5C 99.4806,201.422 106.814,199.588 114.5,199C 131.103,197.901 147.603,198.734 164,201.5C 169.393,201.571 169.893,200.238 165.5,197.5C 163.627,197.482 163.294,197.982 164.5,199C 160.255,200.248 157.588,198.748 156.5,194.5 Z"/></g>
<g><path style="opacity:1" fill="#403530" d="M 237.5,235.5 C 235.384,242.396 232.718,249.063 229.5,255.5C 218.599,245.368 206.266,237.202 192.5,231C 172.697,224.143 152.364,219.643 131.5,217.5C 130.659,215.621 130.325,213.621 130.5,211.5C 135.417,209.975 137.417,211.975 136.5,217.5C 140.534,217.495 144.534,217.162 148.5,216.5C 148.5,212.167 148.5,207.833 148.5,203.5C 157.197,202.058 165.863,202.225 174.5,204C 185.597,207.418 196.597,211.084 207.5,215C 215.833,219.833 224.167,224.667 232.5,229.5C 234.242,231.563 235.909,233.563 237.5,235.5 Z"/></g>
<g><path style="opacity:0.785" fill="#6a4648" d="M 242.5,206.5 C 242.76,210.71 243.094,215.043 243.5,219.5C 242.883,219.389 242.383,219.056 242,218.5C 241.503,214.476 241.669,210.476 242.5,206.5 Z"/></g>
<g><path style="opacity:1" fill="#a0774f" d="M 133.5,221.5 C 132.504,221.414 131.671,221.748 131,222.5C 130.621,226.828 129.288,230.828 127,234.5C 126.667,239.167 126.333,243.833 126,248.5C 123.344,258.772 121.011,269.105 119,279.5C 115.966,298.163 113.133,316.83 110.5,335.5C 102.804,335.515 95.1377,336.015 87.5,337C 83.236,337.481 79.236,338.647 75.5,340.5C 74.7025,340.043 74.3691,339.376 74.5,338.5C 77.6954,303.462 81.3621,268.462 85.5,233.5C 85.5391,231.048 86.2057,229.048 87.5,227.5C 102.36,221.131 117.694,219.131 133.5,221.5 Z"/></g>
<g><path style="opacity:1" fill="#6c4f36" d="M 131.5,217.5 C 152.364,219.643 172.697,224.143 192.5,231C 206.266,237.202 218.599,245.368 229.5,255.5C 231.156,258.139 232.822,260.805 234.5,263.5C 232.924,265.979 231.924,268.646 231.5,271.5C 229.896,272.287 229.229,273.62 229.5,275.5C 229.196,276.15 228.863,276.817 228.5,277.5C 229.602,278.176 230.602,278.842 231.5,279.5C 230.756,282.95 232.09,284.616 235.5,284.5C 234.737,285.268 233.737,285.768 232.5,286C 233.731,287.405 235.064,288.571 236.5,289.5C 236.672,290.492 236.338,291.158 235.5,291.5C 234.258,289.75 232.758,288.083 231,286.5C 229.773,277.897 227.94,277.563 225.5,285.5C 225.863,286.183 226.196,286.85 226.5,287.5C 225.833,287.5 225.5,287.833 225.5,288.5C 223.48,291.368 221.814,294.535 220.5,298C 221.416,298.278 222.082,298.778 222.5,299.5C 219.104,299.633 218.771,300.633 221.5,302.5C 221.154,303.696 220.654,303.696 220,302.5C 219.536,303.094 219.369,303.761 219.5,304.5C 217.72,305.99 217.054,307.99 217.5,310.5C 216.25,310.577 215.417,311.244 215,312.5C 213.316,316.716 212.149,321.049 211.5,325.5C 209.203,327.623 207.87,330.29 207.5,333.5C 204.879,338.557 202.545,343.89 200.5,349.5C 200.942,350.739 201.609,351.739 202.5,352.5C 202.895,355.523 201.895,356.523 199.5,355.5C 198.702,355.957 198.369,356.624 198.5,357.5C 196.26,360.88 194.593,364.546 193.5,368.5C 193.5,369.167 193.5,369.833 193.5,370.5C 192.31,372.355 190.977,374.188 189.5,376C 188.251,376.74 187.251,376.573 186.5,375.5C 187.038,373.883 187.371,372.216 187.5,370.5C 188.158,371.398 188.824,372.398 189.5,373.5C 191.975,369.883 193.308,365.883 193.5,361.5C 205.838,328.818 218.171,296.151 230.5,263.5C 227.939,258.269 224.272,253.936 219.5,250.5C 214.97,246.734 209.97,243.734 204.5,241.5C 200.842,238.939 196.842,236.939 192.5,235.5C 180.556,229.677 167.89,226.011 154.5,224.5C 147.753,222.728 140.753,221.728 133.5,221.5C 117.694,219.131 102.36,221.131 87.5,227.5C 86.5946,226.036 86.5946,224.702 87.5,223.5C 88.609,223.443 89.609,223.11 90.5,222.5C 103.752,218.406 117.418,216.739 131.5,217.5 Z"/></g>
<g><path style="opacity:1" fill="#be9874" d="M 204.5,241.5 C 209.97,243.734 214.97,246.734 219.5,250.5C 207.176,286.75 194.509,322.75 181.5,358.5C 181.043,359.298 180.376,359.631 179.5,359.5C 176.672,357.252 173.672,355.252 170.5,353.5C 181.232,315.972 192.565,278.639 204.5,241.5 Z"/></g>
<g><path style="opacity:1" fill="#b0865c" d="M 154.5,224.5 C 167.89,226.011 180.556,229.677 192.5,235.5C 190.234,235.141 188.401,235.808 187,237.5C 185.008,245.801 183.175,254.134 181.5,262.5C 178.989,269.517 176.489,276.517 174,283.5C 173.333,281.167 173.333,278.833 174,276.5C 177.339,263.977 180.839,251.477 184.5,239C 184.167,237.5 183.833,236 183.5,234.5C 182.914,234.709 182.414,235.043 182,235.5C 181.781,239.61 180.447,243.277 178,246.5C 177.333,251.167 176.667,255.833 176,260.5C 175.333,261.167 174.667,261.833 174,262.5C 173.825,266.211 173.325,269.878 172.5,273.5C 167.628,290.517 162.628,307.517 157.5,324.5C 157.977,325.931 158.643,327.264 159.5,328.5C 164.032,314.667 167.865,300.667 171,286.5C 172.183,285.269 173.349,285.269 174.5,286.5C 169.026,304.011 163.859,321.678 159,339.5C 158.503,342.146 158.336,344.813 158.5,347.5C 150.369,344.011 142.035,341.344 133.5,339.5C 136.831,325.51 140.164,311.51 143.5,297.5C 143.167,296.5 142.833,295.5 142.5,294.5C 142.167,294.833 141.833,295.167 141.5,295.5C 138.482,308.2 135.648,321.2 133,334.5C 132.586,334.957 132.086,335.291 131.5,335.5C 130.353,333.235 130.186,330.902 131,328.5C 134.768,312.726 138.268,296.893 141.5,281C 140.3,279.297 140.633,277.797 142.5,276.5C 145.561,260.815 148.728,245.148 152,229.5C 152.757,227.685 153.59,226.019 154.5,224.5 Z"/></g>
<g><path style="opacity:1" fill="#d39062" d="M 250.5,262.5 C 255.064,266.474 259.731,270.474 264.5,274.5C 260.957,278.255 258.457,282.588 257,287.5C 255.374,287.854 253.541,287.854 251.5,287.5C 249.958,288.301 248.292,288.634 246.5,288.5C 243.106,283.269 238.773,278.769 233.5,275C 235.289,274.48 236.956,274.813 238.5,276C 240.712,278.043 242.712,280.209 244.5,282.5C 245.645,281.224 245.645,279.891 244.5,278.5C 242.373,275.546 239.54,273.546 236,272.5C 233.84,274.119 232.34,273.786 231.5,271.5C 234.679,270.207 238.012,269.54 241.5,269.5C 245.082,267.88 248.082,265.547 250.5,262.5 Z"/></g>
<g><path style="opacity:1" fill="#734a33" d="M 87.5,215.5 C 87.5,218.167 87.5,220.833 87.5,223.5C 86.5946,224.702 86.5946,226.036 87.5,227.5C 86.2057,229.048 85.5391,231.048 85.5,233.5C 81.3621,268.462 77.6954,303.462 74.5,338.5C 73.2134,342.065 73.2134,345.732 74.5,349.5C 74.5,350.167 74.5,350.833 74.5,351.5C 71.718,348.668 70.3847,345.168 70.5,341C 74.9545,302.864 79.1212,264.697 83,226.5C 84,225.5 85,224.5 86,223.5C 86.1829,220.635 86.6829,217.969 87.5,215.5 Z"/></g>
<g><path style="opacity:1" fill="#ac8158" d="M 133.5,221.5 C 140.753,221.728 147.753,222.728 154.5,224.5C 153.59,226.019 152.757,227.685 152,229.5C 148.728,245.148 145.561,260.815 142.5,276.5C 140.633,277.797 140.3,279.297 141.5,281C 138.268,296.893 134.768,312.726 131,328.5C 130.186,330.902 130.353,333.235 131.5,335.5C 132.086,335.291 132.586,334.957 133,334.5C 135.648,321.2 138.482,308.2 141.5,295.5C 141.833,295.167 142.167,294.833 142.5,294.5C 142.833,295.5 143.167,296.5 143.5,297.5C 140.164,311.51 136.831,325.51 133.5,339.5C 125.731,338.039 118.064,336.706 110.5,335.5C 113.133,316.83 115.966,298.163 119,279.5C 121.011,269.105 123.344,258.772 126,248.5C 126.333,243.833 126.667,239.167 127,234.5C 129.288,230.828 130.621,226.828 131,222.5C 131.671,221.748 132.504,221.414 133.5,221.5 Z"/></g>
<g><path style="opacity:1" fill="#a2775b" d="M 229.5,275.5 C 233.701,277.684 237.201,280.684 240,284.5C 239.968,288.502 239.301,288.502 238,284.5C 236.242,282.235 234.075,280.568 231.5,279.5C 230.602,278.842 229.602,278.176 228.5,277.5C 228.863,276.817 229.196,276.15 229.5,275.5 Z"/></g>
<g><path style="opacity:1" fill="#ededec" d="M 235.5,284.5 C 237.597,285.879 237.93,287.545 236.5,289.5C 235.064,288.571 233.731,287.405 232.5,286C 233.737,285.768 234.737,285.268 235.5,284.5 Z"/></g>
<g><path style="opacity:1" fill="#c58c64" d="M 235.5,291.5 C 231.871,291.518 228.871,290.184 226.5,287.5C 226.196,286.85 225.863,286.183 225.5,285.5C 227.94,277.563 229.773,277.897 231,286.5C 232.758,288.083 234.258,289.75 235.5,291.5 Z"/></g>
<g><path style="opacity:1" fill="#b89066" d="M 219.5,250.5 C 224.272,253.936 227.939,258.269 230.5,263.5C 218.171,296.151 205.838,328.818 193.5,361.5C 192.461,363.901 191.127,366.235 189.5,368.5C 186.743,364.737 183.41,361.737 179.5,359.5C 180.376,359.631 181.043,359.298 181.5,358.5C 194.509,322.75 207.176,286.75 219.5,250.5 Z"/></g>
<g><path style="opacity:1" fill="#372a24" d="M 231.5,271.5 C 232.34,273.786 233.84,274.119 236,272.5C 239.54,273.546 242.373,275.546 244.5,278.5C 245.645,279.891 245.645,281.224 244.5,282.5C 242.712,280.209 240.712,278.043 238.5,276C 236.956,274.813 235.289,274.48 233.5,275C 238.773,278.769 243.106,283.269 246.5,288.5C 251.974,291.074 256.974,294.407 261.5,298.5C 262.67,301.002 264.003,303.502 265.5,306C 265.355,306.772 265.022,307.439 264.5,308C 262.754,308.471 261.087,309.138 259.5,310C 259.728,310.399 260.062,310.565 260.5,310.5C 258.545,312.326 256.212,312.826 253.5,312C 247.723,309.226 243.723,304.893 241.5,299C 241.706,297.135 242.372,295.468 243.5,294C 243.241,292.739 242.574,291.739 241.5,291C 238.807,291.84 236.14,293.007 233.5,294.5C 232.833,294.167 232.167,293.833 231.5,293.5C 229.183,292.18 227.183,290.514 225.5,288.5C 225.5,287.833 225.833,287.5 226.5,287.5C 228.871,290.184 231.871,291.518 235.5,291.5C 236.338,291.158 236.672,290.492 236.5,289.5C 237.93,287.545 237.597,285.879 235.5,284.5C 232.09,284.616 230.756,282.95 231.5,279.5C 234.075,280.568 236.242,282.235 238,284.5C 239.301,288.502 239.968,288.502 240,284.5C 237.201,280.684 233.701,277.684 229.5,275.5C 229.229,273.62 229.896,272.287 231.5,271.5 Z"/></g>
<g><path style="opacity:1" fill="#b48162" d="M 251.5,287.5 C 253.504,289.701 255.837,291.701 258.5,293.5C 259.26,295.36 260.26,297.027 261.5,298.5C 256.974,294.407 251.974,291.074 246.5,288.5C 248.292,288.634 249.958,288.301 251.5,287.5 Z"/></g>
<g><path style="opacity:1" fill="#cf8f64" d="M 225.5,288.5 C 227.183,290.514 229.183,292.18 231.5,293.5C 230.7,295.741 229.034,296.741 226.5,296.5C 226.5,298.167 226.5,299.833 226.5,301.5C 225.395,300.4 224.062,299.733 222.5,299.5C 222.082,298.778 221.416,298.278 220.5,298C 221.814,294.535 223.48,291.368 225.5,288.5 Z"/></g>
<g><path style="opacity:1" fill="#b58b62" d="M 192.5,235.5 C 196.842,236.939 200.842,238.939 204.5,241.5C 192.565,278.639 181.232,315.972 170.5,353.5C 166.593,351.309 162.593,349.309 158.5,347.5C 158.336,344.813 158.503,342.146 159,339.5C 163.859,321.678 169.026,304.011 174.5,286.5C 173.349,285.269 172.183,285.269 171,286.5C 167.865,300.667 164.032,314.667 159.5,328.5C 158.643,327.264 157.977,325.931 157.5,324.5C 162.628,307.517 167.628,290.517 172.5,273.5C 173.325,269.878 173.825,266.211 174,262.5C 174.667,261.833 175.333,261.167 176,260.5C 176.667,255.833 177.333,251.167 178,246.5C 180.447,243.277 181.781,239.61 182,235.5C 182.414,235.043 182.914,234.709 183.5,234.5C 183.833,236 184.167,237.5 184.5,239C 180.839,251.477 177.339,263.977 174,276.5C 173.333,278.833 173.333,281.167 174,283.5C 176.489,276.517 178.989,269.517 181.5,262.5C 183.175,254.134 185.008,245.801 187,237.5C 188.401,235.808 190.234,235.141 192.5,235.5 Z"/></g>
<g><path style="opacity:1" fill="#8f4a2d" d="M 231.5,293.5 C 232.167,293.833 232.833,294.167 233.5,294.5C 232.594,295.965 231.261,296.965 229.5,297.5C 228.548,299.045 228.215,300.712 228.5,302.5C 227.833,302.5 227.167,302.5 226.5,302.5C 226.5,302.167 226.5,301.833 226.5,301.5C 226.5,299.833 226.5,298.167 226.5,296.5C 229.034,296.741 230.7,295.741 231.5,293.5 Z"/></g>
<g><path style="opacity:1" fill="#301915" d="M 222.5,299.5 C 224.062,299.733 225.395,300.4 226.5,301.5C 226.5,301.833 226.5,302.167 226.5,302.5C 226.167,302.5 225.833,302.5 225.5,302.5C 224.5,302.5 223.5,302.5 222.5,302.5C 222.166,305.188 222.832,307.521 224.5,309.5C 223.761,309.631 223.094,309.464 222.5,309C 221.601,307.348 220.601,305.848 219.5,304.5C 219.369,303.761 219.536,303.094 220,302.5C 220.654,303.696 221.154,303.696 221.5,302.5C 218.771,300.633 219.104,299.633 222.5,299.5 Z"/></g>
<g><path style="opacity:1" fill="#6b594e" d="M 248.5,299.5 C 250.176,301.834 252.509,302.834 255.5,302.5C 256.396,303.506 257.062,303.506 257.5,302.5C 258.043,302.56 258.376,302.893 258.5,303.5C 252.889,304.703 248.222,303.037 244.5,298.5C 246.257,295.852 247.59,296.186 248.5,299.5 Z"/></g>
<g><path style="opacity:1" fill="#63322b" d="M 225.5,302.5 C 225.833,302.5 226.167,302.5 226.5,302.5C 227.167,302.5 227.833,302.5 228.5,302.5C 229.434,303.568 229.768,304.901 229.5,306.5C 229.216,308.415 229.549,310.081 230.5,311.5C 231.129,313.997 232.796,315.33 235.5,315.5C 236.338,315.842 236.672,316.508 236.5,317.5C 233.111,316.309 229.778,314.809 226.5,313C 225.695,311.887 225.028,310.721 224.5,309.5C 225.735,309.721 226.735,310.388 227.5,311.5C 229.078,307.958 228.412,304.958 225.5,302.5 Z"/></g>
<g><path style="opacity:1" fill="#c98d63" d="M 244.5,298.5 C 248.222,303.037 252.889,304.703 258.5,303.5C 258.376,302.893 258.043,302.56 257.5,302.5C 254.997,298.841 251.664,296.008 247.5,294C 252.994,294.851 257.494,297.685 261,302.5C 260.54,307.616 257.706,309.783 252.5,309C 249.37,306.872 246.537,304.372 244,301.5C 243.26,300.251 243.427,299.251 244.5,298.5 Z"/></g>
<g><path style="opacity:1" fill="#eae9e9" d="M 248.5,299.5 C 251.636,298.979 253.97,299.979 255.5,302.5C 252.509,302.834 250.176,301.834 248.5,299.5 Z"/></g>
<g><path style="opacity:1" fill="#ae4045" d="M 225.5,302.5 C 228.412,304.958 229.078,307.958 227.5,311.5C 226.735,310.388 225.735,309.721 224.5,309.5C 222.832,307.521 222.166,305.188 222.5,302.5C 223.5,302.5 224.5,302.5 225.5,302.5 Z"/></g>
<g><path style="opacity:1" fill="#d08d5f" d="M 260.5,310.5 C 261.969,313.102 261.302,315.269 258.5,317C 253.501,319.891 248.167,320.891 242.5,320C 240.098,313.762 235.765,309.262 229.5,306.5C 229.768,304.901 229.434,303.568 228.5,302.5C 228.215,300.712 228.548,299.045 229.5,297.5C 231.261,296.965 232.594,295.965 233.5,294.5C 236.14,293.007 238.807,291.84 241.5,291C 242.574,291.739 243.241,292.739 243.5,294C 242.372,295.468 241.706,297.135 241.5,299C 243.723,304.893 247.723,309.226 253.5,312C 256.212,312.826 258.545,312.326 260.5,310.5 Z"/></g>
<g><path style="opacity:1" fill="#ca8962" d="M 219.5,304.5 C 220.601,305.848 221.601,307.348 222.5,309C 223.094,309.464 223.761,309.631 224.5,309.5C 225.028,310.721 225.695,311.887 226.5,313C 229.778,314.809 233.111,316.309 236.5,317.5C 232.198,321.645 228.198,321.312 224.5,316.5C 224.349,312.686 222.349,311.019 218.5,311.5C 217.833,311.5 217.5,311.167 217.5,310.5C 217.054,307.99 217.72,305.99 219.5,304.5 Z"/></g>
<g><path style="opacity:1" fill="#110808" d="M 238.5,233.5 C 243.931,236.732 243.764,239.732 238,242.5C 237.392,244.154 236.892,245.821 236.5,247.5C 234.93,250.7 234.096,254.033 234,257.5C 235.5,256 237,254.5 238.5,253C 245.014,251.329 251.348,249.162 257.5,246.5C 262.077,247.822 266.744,248.656 271.5,249C 279.348,254.759 287.015,260.759 294.5,267C 296.102,268.935 297.269,271.101 298,273.5C 298.333,277.833 298.667,282.167 299,286.5C 300.756,288.274 300.756,289.941 299,291.5C 298.667,294.5 298.333,297.5 298,300.5C 295.008,303.239 292.841,306.573 291.5,310.5C 285.98,315.187 280.313,319.687 274.5,324C 268.37,326.644 262.036,327.311 255.5,326C 252.991,327.421 250.657,329.088 248.5,331C 249.931,331.465 251.097,332.299 252,333.5C 252.703,336.713 252.536,339.879 251.5,343C 254.027,344.879 255.86,347.379 257,350.5C 257.859,354.071 257.026,357.071 254.5,359.5C 254.665,356.15 254.498,352.817 254,349.5C 251.804,346.875 248.97,345.875 245.5,346.5C 246.568,345.566 247.901,345.232 249.5,345.5C 249.665,342.15 249.498,338.817 249,335.5C 245.256,336.626 241.423,336.793 237.5,336C 236.667,333.919 236.667,331.752 237.5,329.5C 235.5,329.5 233.5,329.5 231.5,329.5C 227.231,329.266 223.231,328.099 219.5,326C 216.854,325.503 214.187,325.336 211.5,325.5C 212.149,321.049 213.316,316.716 215,312.5C 215.417,311.244 216.25,310.577 217.5,310.5C 217.5,311.167 217.833,311.5 218.5,311.5C 221.086,312.415 223.086,314.082 224.5,316.5C 228.198,321.312 232.198,321.645 236.5,317.5C 236.672,316.508 236.338,315.842 235.5,315.5C 234.055,313.937 232.389,312.604 230.5,311.5C 229.549,310.081 229.216,308.415 229.5,306.5C 235.765,309.262 240.098,313.762 242.5,320C 248.167,320.891 253.501,319.891 258.5,317C 261.302,315.269 261.969,313.102 260.5,310.5C 260.062,310.565 259.728,310.399 259.5,310C 261.087,309.138 262.754,308.471 264.5,308C 265.022,307.439 265.355,306.772 265.5,306C 264.003,303.502 262.67,301.002 261.5,298.5C 260.26,297.027 259.26,295.36 258.5,293.5C 255.837,291.701 253.504,289.701 251.5,287.5C 253.541,287.854 255.374,287.854 257,287.5C 258.457,282.588 260.957,278.255 264.5,274.5C 259.731,270.474 255.064,266.474 250.5,262.5C 250.483,259.605 252.15,257.438 255.5,256C 259.26,254.824 262.093,255.99 264,259.5C 264.078,257.343 264.245,255.343 264.5,253.5C 266.816,256.427 268.316,256.093 269,252.5C 270.333,253.833 271.667,255.167 273,256.5C 274.165,253.186 272.998,251.186 269.5,250.5C 267.755,250.476 265.921,250.81 264,251.5C 261.079,249.645 257.913,248.812 254.5,249C 249.225,253.272 244.225,257.938 239.5,263C 241.809,263.756 243.809,263.256 245.5,261.5C 245.833,261.833 246.167,262.167 246.5,262.5C 244.768,265.737 242.102,267.571 238.5,268C 239.737,268.232 240.737,268.732 241.5,269.5C 238.012,269.54 234.679,270.207 231.5,271.5C 231.924,268.646 232.924,265.979 234.5,263.5C 232.822,260.805 231.156,258.139 229.5,255.5C 232.718,249.063 235.384,242.396 237.5,235.5C 238.338,235.158 238.672,234.492 238.5,233.5 Z"/></g>
<g><path style="opacity:1" fill="#aa8468" d="M 230.5,311.5 C 232.389,312.604 234.055,313.937 235.5,315.5C 232.796,315.33 231.129,313.997 230.5,311.5 Z"/></g>
<g><path style="opacity:1" fill="#794937" d="M 218.5,311.5 C 222.349,311.019 224.349,312.686 224.5,316.5C 223.086,314.082 221.086,312.415 218.5,311.5 Z"/></g>
<g><path style="opacity:1" fill="#211f20" d="M 270.5,261.5 C 270.735,260.903 271.235,260.57 272,260.5C 278.218,262.236 284.384,264.236 290.5,266.5C 291.541,268.585 293.041,270.252 295,271.5C 296.223,278.91 297.056,286.41 297.5,294C 297.742,296.348 296.908,298.182 295,299.5C 293.575,298.788 292.075,298.621 290.5,299C 291.576,297.274 291.743,295.441 291,293.5C 287.991,296.177 285.324,299.177 283,302.5C 282.056,301.737 281.556,300.737 281.5,299.5C 282.43,297.394 283.596,295.394 285,293.5C 285.667,292.5 285.667,291.5 285,290.5C 280.947,292.887 277.947,296.22 276,300.5C 275.667,298.167 275.333,295.833 275,293.5C 273.844,294.993 273.01,294.826 272.5,293C 274.194,288.619 274.694,284.119 274,279.5C 272.613,284.675 270.28,289.342 267,293.5C 266.667,295.833 266.333,298.167 266,300.5C 265.524,295.783 265.524,291.117 266,286.5C 264.171,288.156 262.837,290.156 262,292.5C 261.833,292 261.667,291.5 261.5,291C 263.442,285.62 265.775,280.453 268.5,275.5C 268.201,273.185 267.368,273.185 266,275.5C 265.833,275.167 265.667,274.833 265.5,274.5C 266.562,271.897 266.728,269.23 266,266.5C 262.985,264.726 263.485,264.226 267.5,265C 271.743,267.653 273.576,271.486 273,276.5C 275.414,271.745 274.58,267.579 270.5,264C 274.326,263.313 274.326,262.48 270.5,261.5 Z"/></g>
<g><path style="opacity:1" fill="#242122" d="M 250.5,262.5 C 248.082,265.547 245.082,267.88 241.5,269.5C 240.737,268.732 239.737,268.232 238.5,268C 242.102,267.571 244.768,265.737 246.5,262.5C 246.167,262.167 245.833,261.833 245.5,261.5C 243.809,263.256 241.809,263.756 239.5,263C 244.225,257.938 249.225,253.272 254.5,249C 257.913,248.812 261.079,249.645 264,251.5C 265.921,250.81 267.755,250.476 269.5,250.5C 272.998,251.186 274.165,253.186 273,256.5C 271.667,255.167 270.333,253.833 269,252.5C 268.316,256.093 266.816,256.427 264.5,253.5C 264.245,255.343 264.078,257.343 264,259.5C 262.093,255.99 259.26,254.824 255.5,256C 252.15,257.438 250.483,259.605 250.5,262.5 Z"/></g>
<g><path style="opacity:1" fill="#c08561" d="M 275.5,315.5 C 276.401,319.847 274.401,322.68 269.5,324C 265.142,325.075 261.142,324.408 257.5,322C 261.78,315.982 267.446,313.316 274.5,314C 275.056,314.383 275.389,314.883 275.5,315.5 Z"/></g>
<g><path style="opacity:1" fill="#aa5e3c" d="M 275.5,315.5 C 273.366,321.759 269.033,323.926 262.5,322C 262.043,321.586 261.709,321.086 261.5,320.5C 265.014,315.974 269.681,314.307 275.5,315.5 Z"/></g>
<g><path style="opacity:1" fill="#cb8c60" d="M 211.5,325.5 C 214.187,325.336 216.854,325.503 219.5,326C 223.231,328.099 227.231,329.266 231.5,329.5C 232.952,330.302 234.618,330.802 236.5,331C 235.663,332.011 235.33,333.178 235.5,334.5C 228.844,333.953 222.177,333.453 215.5,333C 212.603,331.285 211.269,328.785 211.5,325.5 Z"/></g>
<g><path style="opacity:1" fill="#140908" d="M 187.5,370.5 C 187.371,372.216 187.038,373.883 186.5,375.5C 185.645,378.175 184.478,380.842 183,383.5C 182.398,386.221 182.565,388.887 183.5,391.5C 182.833,391.5 182.167,391.5 181.5,391.5C 181.19,390.262 180.69,390.262 180,391.5C 179.87,395.939 177.704,398.772 173.5,400C 164.196,401.364 154.863,402.53 145.5,403.5C 124.783,399.761 105.117,392.927 86.5,383C 80.2767,379.611 75.6101,374.778 72.5,368.5C 73.2221,362.831 73.8888,357.165 74.5,351.5C 74.5,350.833 74.5,350.167 74.5,349.5C 75.21,347.107 75.8767,344.607 76.5,342C 113.328,334.375 147.328,341.041 178.5,362C 181.574,364.849 184.574,367.683 187.5,370.5 Z"/></g>
<g><path style="opacity:1" fill="#1e1b20" d="M 211.5,325.5 C 211.269,328.785 212.603,331.285 215.5,333C 222.177,333.453 228.844,333.953 235.5,334.5C 235.33,333.178 235.663,332.011 236.5,331C 234.618,330.802 232.952,330.302 231.5,329.5C 233.5,329.5 235.5,329.5 237.5,329.5C 236.667,331.752 236.667,333.919 237.5,336C 241.423,336.793 245.256,336.626 249,335.5C 249.498,338.817 249.665,342.15 249.5,345.5C 247.901,345.232 246.568,345.566 245.5,346.5C 243.209,347.738 241.209,347.238 239.5,345C 233.202,343.167 226.869,342.667 220.5,343.5C 219.304,343.154 219.304,342.654 220.5,342C 219.451,341.508 218.451,341.674 217.5,342.5C 216.808,341.975 216.308,341.308 216,340.5C 215.368,342.965 213.868,344.631 211.5,345.5C 210.808,344.975 210.308,344.308 210,343.5C 209.027,345.392 208.36,347.392 208,349.5C 207.133,347.316 206.299,345.149 205.5,343C 206.979,339.993 207.646,336.826 207.5,333.5C 207.87,330.29 209.203,327.623 211.5,325.5 Z"/></g>
<g><path style="opacity:1" fill="#29221f" d="M 163.5,355.5 C 150.678,351.303 137.678,347.803 124.5,345C 114.167,344.333 103.833,344.333 93.5,345C 89.7665,345.066 86.2665,345.899 83,347.5C 82.586,347.043 82.086,346.709 81.5,346.5C 80.7348,347.612 79.7348,348.279 78.5,348.5C 78.5,346.833 78.5,345.167 78.5,343.5C 108.265,337.761 136.599,341.761 163.5,355.5 Z"/></g>
<g><path style="opacity:1" fill="#232226" d="M 207.5,333.5 C 207.646,336.826 206.979,339.993 205.5,343C 206.299,345.149 207.133,347.316 208,349.5C 208.36,347.392 209.027,345.392 210,343.5C 210.308,344.308 210.808,344.975 211.5,345.5C 213.868,344.631 215.368,342.965 216,340.5C 216.308,341.308 216.808,341.975 217.5,342.5C 218.451,341.674 219.451,341.508 220.5,342C 219.304,342.654 219.304,343.154 220.5,343.5C 226.869,342.667 233.202,343.167 239.5,345C 241.209,347.238 243.209,347.738 245.5,346.5C 248.97,345.875 251.804,346.875 254,349.5C 254.498,352.817 254.665,356.15 254.5,359.5C 253.603,358.402 252.77,358.402 252,359.5C 246.74,367.693 241.24,375.693 235.5,383.5C 232.717,388.03 228.717,389.53 223.5,388C 215.847,384.508 208.513,380.508 201.5,376C 200.934,371.268 198.267,368.768 193.5,368.5C 194.593,364.546 196.26,360.88 198.5,357.5C 202.515,359.72 206.849,360.887 211.5,361C 214.975,362.912 218.641,364.579 222.5,366C 224.388,368.19 226.555,370.023 229,371.5C 229.219,372.938 229.719,374.271 230.5,375.5C 231.583,374.635 231.749,373.635 231,372.5C 229.692,370.359 228.192,368.359 226.5,366.5C 229.067,361.596 232.401,357.263 236.5,353.5C 235.635,352.417 234.635,352.251 233.5,353C 230.427,357.023 227.26,360.856 224,364.5C 220.114,362.668 216.28,360.835 212.5,359C 209.833,358.667 207.167,358.333 204.5,358C 203.891,356.052 203.224,354.218 202.5,352.5C 201.609,351.739 200.942,350.739 200.5,349.5C 202.545,343.89 204.879,338.557 207.5,333.5 Z"/></g>
<g><path style="opacity:1" fill="#3b322f" d="M 163.5,355.5 C 172.056,358.703 179.056,364.036 184.5,371.5C 182.154,377.521 179.82,383.521 177.5,389.5C 166.184,379.315 153.184,371.815 138.5,367C 118.324,361.205 97.9911,360.038 77.5,363.5C 77.5,361.167 77.5,358.833 77.5,356.5C 77.2786,353.721 77.612,351.054 78.5,348.5C 79.7348,348.279 80.7348,347.612 81.5,346.5C 82.086,346.709 82.586,347.043 83,347.5C 86.2665,345.899 89.7665,345.066 93.5,345C 103.833,344.333 114.167,344.333 124.5,345C 137.678,347.803 150.678,351.303 163.5,355.5 Z"/></g>
<g><path style="opacity:1" fill="#76757a" d="M 216.5,351.5 C 219.592,353.378 222.926,354.711 226.5,355.5C 225.672,356.415 224.672,357.081 223.5,357.5C 221.585,355.528 219.251,354.528 216.5,354.5C 216.5,353.5 216.5,352.5 216.5,351.5 Z"/></g>
<g><path style="opacity:1" fill="#7f6145" d="M 110.5,335.5 C 118.064,336.706 125.731,338.039 133.5,339.5C 142.035,341.344 150.369,344.011 158.5,347.5C 162.593,349.309 166.593,351.309 170.5,353.5C 173.672,355.252 176.672,357.252 179.5,359.5C 183.41,361.737 186.743,364.737 189.5,368.5C 191.127,366.235 192.461,363.901 193.5,361.5C 193.308,365.883 191.975,369.883 189.5,373.5C 188.824,372.398 188.158,371.398 187.5,370.5C 184.574,367.683 181.574,364.849 178.5,362C 147.328,341.041 113.328,334.375 76.5,342C 75.8767,344.607 75.21,347.107 74.5,349.5C 73.2134,345.732 73.2134,342.065 74.5,338.5C 74.3691,339.376 74.7025,340.043 75.5,340.5C 79.236,338.647 83.236,337.481 87.5,337C 95.1377,336.015 102.804,335.515 110.5,335.5 Z"/></g>
<g><path style="opacity:0.969" fill="#200a09" d="M 254.5,359.5 C 248.557,368.401 242.89,377.401 237.5,386.5C 237.715,384.821 237.048,383.821 235.5,383.5C 241.24,375.693 246.74,367.693 252,359.5C 252.77,358.402 253.603,358.402 254.5,359.5 Z"/></g>
<g><path style="opacity:1" fill="#2b2522" d="M 77.5,356.5 C 77.5,358.833 77.5,361.167 77.5,363.5C 97.9911,360.038 118.324,361.205 138.5,367C 153.184,371.815 166.184,379.315 177.5,389.5C 177.048,393.238 175.048,395.738 171.5,397C 142.326,400.871 114.993,395.538 89.5,381C 85.0685,378.404 81.0685,375.238 77.5,371.5C 76.1863,366.348 76.1863,361.348 77.5,356.5 Z"/></g>
<g><path style="opacity:1" fill="#09080c" d="M 202.5,352.5 C 203.224,354.218 203.891,356.052 204.5,358C 207.167,358.333 209.833,358.667 212.5,359C 216.28,360.835 220.114,362.668 224,364.5C 227.26,360.856 230.427,357.023 233.5,353C 234.635,352.251 235.635,352.417 236.5,353.5C 232.401,357.263 229.067,361.596 226.5,366.5C 228.192,368.359 229.692,370.359 231,372.5C 231.749,373.635 231.583,374.635 230.5,375.5C 229.719,374.271 229.219,372.938 229,371.5C 226.555,370.023 224.388,368.19 222.5,366C 218.641,364.579 214.975,362.912 211.5,361C 206.849,360.887 202.515,359.72 198.5,357.5C 198.369,356.624 198.702,355.957 199.5,355.5C 201.895,356.523 202.895,355.523 202.5,352.5 Z"/></g>
<g><path style="opacity:1" fill="#1d1916" d="M 167.5,392.5 C 166.391,393.29 165.058,393.79 163.5,394C 154.833,394.667 146.167,394.667 137.5,394C 133.653,393.367 129.986,392.533 126.5,391.5C 112.854,386.945 99.3537,380.612 86,372.5C 84.5619,371.1 83.7286,369.433 83.5,367.5C 113.333,364.042 141,370.209 166.5,386C 167.5,387.667 168.833,389 170.5,390C 169.429,390.852 168.429,391.685 167.5,392.5 Z"/></g>
<g><path style="opacity:1" fill="#0c0807" d="M 167.5,392.5 C 168.429,391.685 169.429,390.852 170.5,390C 168.833,389 167.5,387.667 166.5,386C 141,370.209 113.333,364.042 83.5,367.5C 83.7286,369.433 84.5619,371.1 86,372.5C 99.3537,380.612 112.854,386.945 126.5,391.5C 114.233,388.705 102.566,384.205 91.5,378C 88.5767,375.955 85.7433,373.788 83,371.5C 82.6667,372.167 82.3333,372.833 82,373.5C 77.714,371.144 77.5473,368.644 81.5,366C 111.808,361.442 140.141,367.109 166.5,383C 169.219,385.382 171.553,388.049 173.5,391C 172.425,393.862 170.425,395.196 167.5,395C 169.842,393.608 169.842,392.775 167.5,392.5 Z"/></g>
<g><path style="opacity:1" fill="#232125" d="M 193.5,370.5 C 195.39,370.297 196.89,370.963 198,372.5C 198.45,374.519 199.283,376.352 200.5,378C 207.513,382.508 214.847,386.508 222.5,390C 226.802,391.006 230.802,390.506 234.5,388.5C 235.043,388.56 235.376,388.893 235.5,389.5C 234.672,390.415 233.672,391.081 232.5,391.5C 231.491,395.537 230.491,399.537 229.5,403.5C 228.209,403.263 227.209,403.596 226.5,404.5C 224.311,403.438 221.978,402.772 219.5,402.5C 209.835,403.733 200.168,403.733 190.5,402.5C 189.053,401.115 188.053,401.448 187.5,403.5C 186.1,402.9 185.1,401.9 184.5,400.5C 183.833,400.5 183.5,400.167 183.5,399.5C 183.5,396.833 183.5,394.167 183.5,391.5C 182.565,388.887 182.398,386.221 183,383.5C 184.478,380.842 185.645,378.175 186.5,375.5C 187.251,376.573 188.251,376.74 189.5,376C 190.977,374.188 192.31,372.355 193.5,370.5 Z"/></g>
<g><path style="opacity:1" fill="#08080b" d="M 193.5,368.5 C 198.267,368.768 200.934,371.268 201.5,376C 208.513,380.508 215.847,384.508 223.5,388C 228.717,389.53 232.717,388.03 235.5,383.5C 237.048,383.821 237.715,384.821 237.5,386.5C 237.5,386.833 237.5,387.167 237.5,387.5C 236.209,387.263 235.209,387.596 234.5,388.5C 230.802,390.506 226.802,391.006 222.5,390C 214.847,386.508 207.513,382.508 200.5,378C 199.283,376.352 198.45,374.519 198,372.5C 196.89,370.963 195.39,370.297 193.5,370.5C 193.5,369.833 193.5,369.167 193.5,368.5 Z"/></g>
<g><path style="opacity:0.15" fill="#380508" d="M 181.5,391.5 C 182.167,391.5 182.833,391.5 183.5,391.5C 183.5,394.167 183.5,396.833 183.5,399.5C 182.745,396.947 182.078,394.28 181.5,391.5 Z"/></g>
<g><path style="opacity:1" fill="#80683d" d="M 190.5,402.5 C 188.952,402.821 188.285,403.821 188.5,405.5C 187.5,405.5 186.5,405.5 185.5,405.5C 186.167,404.833 186.833,404.167 187.5,403.5C 188.053,401.448 189.053,401.115 190.5,402.5 Z"/></g>
<g><path style="opacity:0.89" fill="#271210" d="M 234.5,388.5 C 235.209,387.596 236.209,387.263 237.5,387.5C 234.921,395.263 231.588,402.596 227.5,409.5C 228.527,417.52 229.693,425.52 231,433.5C 235.546,437.714 240.379,441.547 245.5,445C 247.415,447.4 249.081,449.9 250.5,452.5C 248.493,451.321 248.16,451.821 249.5,454C 248.906,454.464 248.239,454.631 247.5,454.5C 245.372,448.362 241.372,443.695 235.5,440.5C 233.116,438.115 230.45,436.115 227.5,434.5C 228.639,428.326 228.305,422.326 226.5,416.5C 225.322,412.452 225.322,408.452 226.5,404.5C 227.209,403.596 228.209,403.263 229.5,403.5C 230.491,399.537 231.491,395.537 232.5,391.5C 233.672,391.081 234.672,390.415 235.5,389.5C 235.376,388.893 235.043,388.56 234.5,388.5 Z"/></g>
<g><path style="opacity:1" fill="#d6ad4b" d="M 190.5,402.5 C 200.168,403.733 209.835,403.733 219.5,402.5C 221.978,402.772 224.311,403.438 226.5,404.5C 225.322,408.452 225.322,412.452 226.5,416.5C 226.177,422.69 226.51,428.69 227.5,434.5C 230.45,436.115 233.116,438.115 235.5,440.5C 236.73,444.732 239.396,447.732 243.5,449.5C 244.309,451.071 244.643,452.738 244.5,454.5C 240.795,454.871 238.795,456.871 238.5,460.5C 237.5,460.5 236.5,460.5 235.5,460.5C 228.273,455.452 221.44,449.785 215,443.5C 212.665,432.501 210.499,421.501 208.5,410.5C 206.167,410.5 203.833,410.5 201.5,410.5C 198.2,417.747 193.867,424.413 188.5,430.5C 187.675,431.386 186.675,431.719 185.5,431.5C 185.198,434.059 185.532,436.393 186.5,438.5C 186.5,441.167 186.5,443.833 186.5,446.5C 186.665,449.518 186.498,452.518 186,455.5C 185.722,456.416 185.222,457.082 184.5,457.5C 180.881,456.756 177.215,456.423 173.5,456.5C 173.058,454.028 172.725,451.528 172.5,449C 172.629,447.019 173.296,445.353 174.5,444C 172.05,438.806 171.05,433.306 171.5,427.5C 176.18,420.13 180.847,412.797 185.5,405.5C 186.5,405.5 187.5,405.5 188.5,405.5C 188.285,403.821 188.952,402.821 190.5,402.5 Z"/></g>
<g><path style="opacity:1" fill="#2e1713" d="M 235.5,460.5 C 234.833,460.5 234.5,460.833 234.5,461.5C 227.063,457.021 220.23,451.687 214,445.5C 210.909,434.706 208.076,423.873 205.5,413C 204.668,412.312 204.002,412.479 203.5,413.5C 198.497,421.155 193.164,428.489 187.5,435.5C 187.631,434.761 187.464,434.094 187,433.5C 186.506,435.134 186.34,436.801 186.5,438.5C 185.532,436.393 185.198,434.059 185.5,431.5C 186.675,431.719 187.675,431.386 188.5,430.5C 193.867,424.413 198.2,417.747 201.5,410.5C 203.833,410.5 206.167,410.5 208.5,410.5C 210.499,421.501 212.665,432.501 215,443.5C 221.44,449.785 228.273,455.452 235.5,460.5 Z"/></g>
<g><path style="opacity:0.878" fill="#2c1112" d="M 184.5,400.5 C 185.1,401.9 186.1,402.9 187.5,403.5C 186.833,404.167 186.167,404.833 185.5,405.5C 180.847,412.797 176.18,420.13 171.5,427.5C 170.003,429.29 169.336,431.456 169.5,434C 170.457,441.486 171.29,448.986 172,456.5C 172.717,457.044 173.217,457.711 173.5,458.5C 172.833,460.5 172.167,462.5 171.5,464.5C 169.411,452.946 168.245,441.28 168,429.5C 171.94,422.564 176.273,415.897 181,409.5C 182.741,406.691 183.908,403.691 184.5,400.5 Z"/></g>
<g><path style="opacity:1" fill="#997c3e" d="M 226.5,416.5 C 228.305,422.326 228.639,428.326 227.5,434.5C 226.51,428.69 226.177,422.69 226.5,416.5 Z"/></g>
<g><path style="opacity:1" fill="#c2a050" d="M 171.5,427.5 C 171.05,433.306 172.05,438.806 174.5,444C 173.296,445.353 172.629,447.019 172.5,449C 172.725,451.528 173.058,454.028 173.5,456.5C 177.215,456.423 180.881,456.756 184.5,457.5C 184.158,458.338 183.492,458.672 182.5,458.5C 179.5,457.167 176.5,457.167 173.5,458.5C 173.217,457.711 172.717,457.044 172,456.5C 171.29,448.986 170.457,441.486 169.5,434C 169.336,431.456 170.003,429.29 171.5,427.5 Z"/></g>
<g><path style="opacity:1" fill="#b49348" d="M 235.5,440.5 C 241.372,443.695 245.372,448.362 247.5,454.5C 246.5,454.5 245.5,454.5 244.5,454.5C 244.643,452.738 244.309,451.071 243.5,449.5C 239.396,447.732 236.73,444.732 235.5,440.5 Z"/></g>
<g><path style="opacity:1" fill="#866c3a" d="M 186.5,446.5 C 187.647,450.646 187.814,454.98 187,459.5C 185.085,460.916 183.585,460.582 182.5,458.5C 183.492,458.672 184.158,458.338 184.5,457.5C 185.222,457.082 185.722,456.416 186,455.5C 186.498,452.518 186.665,449.518 186.5,446.5 Z"/></g>
<g><path style="opacity:1" fill="#1a1617" d="M 250.5,452.5 C 252.512,453.228 254.512,454.062 256.5,455C 260.402,459.727 264.402,464.227 268.5,468.5C 265.825,473.257 262.992,477.924 260,482.5C 257.815,484.54 255.315,485.874 252.5,486.5C 248.975,486.215 245.642,486.881 242.5,488.5C 241.833,488.167 241.167,487.833 240.5,487.5C 239.607,484.916 239.274,482.249 239.5,479.5C 243.214,474.559 243.047,469.559 239,464.5C 237.591,463.219 236.091,462.219 234.5,461.5C 234.5,460.833 234.833,460.5 235.5,460.5C 236.5,460.5 237.5,460.5 238.5,460.5C 238.795,456.871 240.795,454.871 244.5,454.5C 245.5,454.5 246.5,454.5 247.5,454.5C 248.239,454.631 248.906,454.464 249.5,454C 248.16,451.821 248.493,451.321 250.5,452.5 Z"/></g>
<g><path style="opacity:1" fill="#191514" d="M 187.5,435.5 C 188.873,444.461 189.206,453.461 188.5,462.5C 189.834,469.169 191.167,475.836 192.5,482.5C 192.047,483.458 191.381,484.292 190.5,485C 185.713,486.698 181.046,488.698 176.5,491C 170.574,492.11 164.908,491.444 159.5,489C 157.675,487.534 157.175,485.701 158,483.5C 161.097,479.947 164.43,476.614 168,473.5C 169.924,470.811 171.091,467.811 171.5,464.5C 172.167,462.5 172.833,460.5 173.5,458.5C 176.5,457.167 179.5,457.167 182.5,458.5C 183.585,460.582 185.085,460.916 187,459.5C 187.814,454.98 187.647,450.646 186.5,446.5C 186.5,443.833 186.5,441.167 186.5,438.5C 186.34,436.801 186.506,435.134 187,433.5C 187.464,434.094 187.631,434.761 187.5,435.5 Z"/></g>
<g><path style="opacity:0.973" fill="#331011" d="M 188.5,462.5 C 190.067,463.681 190.901,465.347 191,467.5C 191.595,471.715 192.429,475.881 193.5,480C 193.472,481.07 193.139,481.903 192.5,482.5C 191.167,475.836 189.834,469.169 188.5,462.5 Z"/></g>
<g><path style="opacity:1" fill="#2d0f0f" d="M 239.5,479.5 C 239.274,482.249 239.607,484.916 240.5,487.5C 241.167,487.833 241.833,488.167 242.5,488.5C 245.642,486.881 248.975,486.215 252.5,486.5C 248.523,488.74 244.189,489.573 239.5,489C 236.901,485.793 236.901,482.626 239.5,479.5 Z"/></g>
</svg>
